<svg width="225" height="210" viewBox="0 0 225 210" fill="none" xmlns="http://www.w3.org/2000/svg">
<path d="M212.762 46.1297C220.293 62.1339 225 79.0795 225 97.9079C225 160.042 174.163 209.937 112.029 209.937C49.8954 209.937 0 160.042 0 97.9079C0 79.0795 4.70711 62.1339 12.2385 46.1297C7.53138 59.3096 3.76569 73.431 3.76569 87.5523C3.76569 147.803 52.7197 195.816 112.029 195.816C172.28 195.816 221.234 147.803 221.234 87.5523C221.234 73.431 217.469 59.3096 212.762 46.1297V46.1297ZM112.029 34.8326L116.736 44.2469L126.151 45.1883L119.561 51.7782L121.444 62.1339L112.029 57.4268L103.556 62.1339L105.439 51.7782L98.8494 45.1883L108.264 44.2469L112.029 34.8326ZM81.9038 40.4812L84.728 47.0711L93.2008 48.954L87.5523 54.6025L88.4937 62.1339L81.9038 58.3682L74.3724 62.1339L76.2552 54.6025L70.6067 48.954L78.1381 47.0711L81.9038 40.4812V40.4812ZM143.096 40.4812L146.862 47.0711L154.393 48.954L148.745 54.6025L150.628 62.1339L143.096 58.3682L136.506 62.1339L137.448 54.6025L131.799 48.954L140.272 47.0711L143.096 40.4812ZM112.029 146.862L116.736 138.389L126.151 136.506L119.561 129.916L121.444 120.502L112.029 124.268L103.556 120.502L105.439 129.916L98.8494 136.506L108.264 138.389L112.029 146.862ZM81.9038 141.213L84.728 134.623L93.2008 133.682L87.5523 128.033L88.4937 120.502L81.9038 123.326L74.3724 120.502L76.2552 128.033L70.6067 133.682L78.1381 134.623L81.9038 141.213V141.213ZM143.096 141.213L146.862 134.623L154.393 133.682L148.745 128.033L150.628 120.502L143.096 123.326L136.506 120.502L137.448 128.033L131.799 133.682L140.272 134.623L143.096 141.213ZM112.029 13.1799C69.6653 13.1799 34.8326 48.0126 34.8326 91.318C34.8326 133.682 69.6653 169.456 112.029 169.456C155.335 169.456 190.167 133.682 190.167 91.318C190.167 48.0126 155.335 13.1799 112.029 13.1799ZM112.029 170.397C68.7239 170.397 32.9498 134.623 32.9498 91.318C32.9498 47.0711 68.7239 11.2971 112.029 11.2971C156.276 11.2971 192.05 47.0711 192.05 91.318C192.05 134.623 156.276 170.397 112.029 170.397ZM112.029 19.7699C73.431 19.7699 41.4226 51.7782 41.4226 91.318C41.4226 129.916 73.431 161.925 112.029 161.925C151.569 161.925 183.577 129.916 183.577 91.318C183.577 51.7782 151.569 19.7699 112.029 19.7699ZM112.029 165.69C71.5481 165.69 37.6569 131.799 37.6569 91.318C37.6569 49.8954 71.5481 16.0042 112.029 16.0042C153.452 16.0042 187.343 49.8954 187.343 91.318C187.343 131.799 153.452 165.69 112.029 165.69ZM112.029 0L113.912 2.82427H116.736L114.854 5.64854V8.4728L112.029 6.58996L110.146 8.4728V5.64854L108.264 2.82427H111.088L112.029 0ZM94.1423 1.88285L96.0251 3.76569H98.8494L96.9665 6.58996L97.9079 9.41423L95.0837 8.4728L93.2008 10.3556V7.53138L90.3766 5.64854L93.2008 4.70711L94.1423 1.88285V1.88285ZM76.2552 6.58996L78.1381 9.41423L81.9038 8.4728L80.0209 11.2971L81.9038 13.1799H79.0795L77.1967 16.0042L76.2552 13.1799L73.431 11.2971L76.2552 10.3556V6.58996ZM60.251 16.0042L63.0753 16.9456L65.8996 16.0042L64.9582 18.8285L66.841 20.7113L64.0167 21.6527L63.0753 24.477L61.1925 21.6527L58.3682 20.7113L60.251 18.8285V16.0042ZM46.1297 27.3013L48.954 28.2427L51.7782 26.3598V30.1255L53.6611 31.0669L50.8368 32.9498L49.8954 35.7741L48.954 32.9498H45.1883L47.0711 30.1255L46.1297 27.3013V27.3013ZM34.8326 42.364H37.6569L40.4812 40.4812V43.3054L43.3054 44.2469L40.4812 46.1297V48.954L38.5983 47.0711L35.7741 48.0126L36.7155 45.1883L34.8326 42.364ZM27.3013 58.3682H30.1255L32.0084 55.5439L32.9498 58.3682L35.7741 59.3096L33.8912 61.1925V64.0167L31.0669 63.0753L28.2427 64.0167L29.1841 61.1925L27.3013 58.3682V58.3682ZM22.5941 76.2552L25.4184 75.3138L26.3598 72.4895L28.2427 75.3138H31.0669L29.1841 78.1381L30.1255 80.9623L27.3013 80.0209L25.4184 81.9038V78.1381L22.5941 76.2552V76.2552ZM21.6527 96.0251L24.477 94.1423V91.318L27.3013 93.2008L30.1255 92.2594L29.1841 95.0837L30.1255 97.9079H27.3013L25.4184 99.7908L24.477 96.9665L21.6527 96.0251V96.0251ZM24.477 113.912L26.3598 112.029V109.205L29.1841 110.146L32.0084 109.205L31.0669 112.029L32.9498 113.912L30.1255 114.854L28.2427 117.678L27.3013 114.854L24.477 113.912ZM31.0669 130.858L32.9498 128.975L31.0669 126.151L34.8326 127.092L36.7155 125.209V128.033L39.5397 129.916L36.7155 130.858L35.7741 133.682L33.8912 130.858H31.0669V130.858ZM40.4812 146.862L41.4226 144.038L39.5397 141.213L43.3054 142.155L45.1883 139.331V142.155L48.0126 144.038L46.1297 144.979L45.1883 148.745L43.3054 145.92L40.4812 146.862V146.862ZM52.7197 160.042L53.6611 157.218L51.7782 155.335L54.6025 154.393L56.4854 152.51L57.4268 155.335H60.251L58.3682 157.218V160.983L55.5439 159.1L52.7197 160.042ZM67.7824 170.397V167.573L65.8996 165.69L68.7238 164.749L69.6653 161.925L71.5481 164.749H74.3724L72.4895 166.632L73.431 170.397L70.6067 168.515L67.7824 170.397ZM84.728 177.929V174.163L81.9038 173.222L84.728 172.28V168.515L87.5523 171.339L90.3766 170.397L88.4937 173.222L90.3766 176.046L87.5523 175.105L84.728 177.929ZM102.615 180.753L101.674 177.929H98.8494L101.674 176.046L100.732 172.28L103.556 174.163L106.381 173.222L105.439 176.046L107.322 178.87H104.498L102.615 180.753ZM122.385 180.753L120.502 178.87H117.678L119.561 176.046L118.619 173.222L121.444 174.163L123.326 172.28V176.046L126.151 177.929H123.326L122.385 180.753ZM140.272 177.929L137.448 175.105L134.623 176.046L136.506 173.222L134.623 170.397L137.448 171.339L140.272 168.515V172.28L143.096 173.222L140.272 174.163V177.929ZM157.218 170.397L154.393 168.515L151.569 170.397L152.51 166.632L150.628 164.749H153.452L155.335 161.925L156.276 164.749L159.1 165.69L157.218 167.573V170.397ZM172.28 160.042L169.456 159.1L166.632 160.983V157.218L164.749 155.335H167.573L168.515 152.51L170.397 154.393L173.222 155.335L171.339 157.218L172.28 160.042ZM184.519 146.862L181.695 145.92L179.812 148.745L178.87 144.979L176.987 144.038L179.812 142.155V139.331L181.695 142.155L185.46 141.213L183.577 144.038L184.519 146.862ZM193.933 130.858H191.109L189.226 133.682L188.285 130.858L185.46 129.916L188.285 128.033V125.209L190.167 127.092L192.992 126.151L192.05 128.975L193.933 130.858ZM200.523 113.912L197.699 114.854L196.757 117.678L194.874 114.854L192.05 113.912L193.933 112.029L192.992 109.205L195.816 110.146L198.64 109.205V112.029L200.523 113.912V113.912ZM203.347 96.0251L200.523 96.9665L199.582 99.7908L197.699 97.9079H194.874L195.816 95.0837L194.874 92.2594L197.699 93.2008L200.523 91.318V94.1423L203.347 96.0251ZM202.406 76.2552L199.582 78.1381V81.9038L197.699 80.0209L194.874 80.9623L195.816 78.1381L193.933 75.3138H196.757L198.64 72.4895L199.582 75.3138L202.406 76.2552V76.2552ZM197.699 58.3682L195.816 61.1925L196.757 64.0167L193.933 63.0753L191.109 64.0167V61.1925L189.226 59.3096L192.05 58.3682L192.992 55.5439L194.874 58.3682H197.699V58.3682ZM190.167 42.364L188.285 45.1883L189.226 48.0126L186.402 47.0711L184.519 48.954V46.1297L181.695 44.2469L184.519 43.3054V40.4812L187.343 42.364H190.167V42.364ZM178.87 27.3013L177.929 30.1255L179.812 32.9498H176.046L174.163 35.7741V32.9498L170.397 31.0669L173.222 30.1255V26.3598L176.046 28.2427L178.87 27.3013V27.3013ZM164.749 16.0042V18.8285L166.632 20.7113L163.808 21.6527L161.925 24.477L160.983 21.6527L158.159 20.7113L160.042 18.8285L159.1 16.0042L161.925 16.9456L164.749 16.0042V16.0042ZM148.745 6.58996V10.3556L151.569 11.2971L148.745 13.1799L147.803 16.0042L145.92 13.1799H143.096L144.979 11.2971L143.096 8.4728L145.92 9.41423L148.745 6.58996ZM130.858 1.88285L131.799 4.70711L134.623 5.64854L131.799 7.53138V10.3556L129.916 8.4728L127.092 9.41423L128.033 6.58996L126.151 3.76569H128.975L130.858 1.88285V1.88285ZM112.029 0L113.912 2.82427H116.736L114.854 5.64854V8.4728L112.029 6.58996L110.146 8.4728V5.64854L108.264 2.82427H111.088L112.029 0V0ZM64.9582 80.0209V104.498H57.4268V85.6695H52.7197V80.0209H64.9582V80.0209ZM79.0795 104.498C77.1966 104.498 75.3138 104.498 73.431 103.556C71.5481 101.674 70.6067 100.732 69.6653 98.8494C68.7238 96.9665 68.7238 94.1423 68.7238 92.2594C68.7238 89.4351 68.7238 86.6109 69.6653 84.728C70.6067 82.8452 71.5481 81.9038 73.431 80.9623C75.3138 80.0209 77.1966 79.0795 79.0795 79.0795C80.9623 79.0795 83.7866 80.0209 84.728 80.9623C86.6109 81.9038 87.5523 82.8452 88.4937 84.728C89.4351 86.6109 90.3766 89.4351 90.3766 92.2594C90.3766 94.1423 89.4351 96.9665 88.4937 98.8494C87.5523 100.732 86.6109 101.674 84.728 103.556C83.7866 104.498 80.9623 104.498 79.0795 104.498V104.498ZM79.0795 97.9079C80.9623 97.9079 81.9038 96.0251 81.9038 92.2594C81.9038 87.5523 80.9623 85.6695 79.0795 85.6695C77.1966 85.6695 76.2552 87.5523 76.2552 92.2594C76.2552 96.0251 77.1966 97.9079 79.0795 97.9079ZM112.971 104.498C111.088 104.498 109.205 104.498 107.322 103.556C105.439 101.674 104.498 100.732 103.556 98.8494C102.615 96.9665 101.674 94.1423 101.674 92.2594C101.674 89.4351 102.615 86.6109 103.556 84.728C104.498 82.8452 105.439 81.9038 107.322 80.9623C109.205 80.0209 111.088 79.0795 112.971 79.0795C114.854 79.0795 116.736 80.0209 118.619 80.9623C120.502 81.9038 121.444 82.8452 122.385 84.728C123.326 86.6109 124.268 89.4351 124.268 92.2594C124.268 94.1423 123.326 96.9665 122.385 98.8494C121.444 100.732 120.502 101.674 118.619 103.556C116.736 104.498 114.854 104.498 112.971 104.498ZM112.971 97.9079C114.854 97.9079 115.795 96.0251 115.795 92.2594C115.795 87.5523 114.854 85.6695 112.971 85.6695C111.088 85.6695 110.146 87.5523 110.146 92.2594C110.146 96.0251 111.088 97.9079 112.971 97.9079ZM137.448 104.498C134.623 104.498 132.741 104.498 130.858 103.556C129.916 101.674 128.033 100.732 127.092 98.8494C126.151 96.9665 126.151 94.1423 126.151 92.2594C126.151 89.4351 126.151 86.6109 127.092 84.728C128.033 82.8452 129.916 81.9038 130.858 80.9623C132.741 80.0209 134.623 79.0795 137.448 79.0795C139.331 79.0795 141.213 80.0209 143.096 80.9623C144.038 81.9038 145.92 82.8452 146.862 84.728C147.803 86.6109 147.803 89.4351 147.803 92.2594C147.803 94.1423 147.803 96.9665 146.862 98.8494C145.92 100.732 144.038 101.674 143.096 103.556C141.213 104.498 139.331 104.498 137.448 104.498ZM137.448 97.9079C139.331 97.9079 139.331 96.0251 139.331 92.2594C139.331 87.5523 139.331 85.6695 137.448 85.6695C135.565 85.6695 134.623 87.5523 134.623 92.2594C134.623 96.0251 135.565 97.9079 137.448 97.9079ZM160.983 104.498C159.1 104.498 157.218 104.498 155.335 103.556C153.452 101.674 152.51 100.732 151.569 98.8494C150.628 96.9665 149.686 94.1423 149.686 92.2594C149.686 89.4351 150.628 86.6109 151.569 84.728C152.51 82.8452 153.452 81.9038 155.335 80.9623C157.218 80.0209 159.1 79.0795 160.983 79.0795C162.866 79.0795 164.749 80.0209 166.632 80.9623C168.515 81.9038 169.456 82.8452 170.397 84.728C171.339 86.6109 172.28 89.4351 172.28 92.2594C172.28 94.1423 171.339 96.9665 170.397 98.8494C169.456 100.732 168.515 101.674 166.632 103.556C164.749 104.498 162.866 104.498 160.983 104.498ZM160.983 97.9079C162.866 97.9079 163.808 96.0251 163.808 92.2594C163.808 87.5523 162.866 85.6695 160.983 85.6695C159.1 85.6695 158.159 87.5523 158.159 92.2594C158.159 96.0251 159.1 97.9079 160.983 97.9079Z" fill="#525A63"/>
</svg>
