<svg width="64" height="64" viewBox="0 0 64 64" fill="none" xmlns="http://www.w3.org/2000/svg">
<path d="M32 64C49.6731 64 64 49.6731 64 32C64 14.3269 49.6731 0 32 0C14.3269 0 0 14.3269 0 32C0 49.6731 14.3269 64 32 64Z" fill="#E00013"/>
<path d="M46.0424 20H17.9573C16.8293 20 15.9148 21.0288 15.9148 22.2979V22.5532C15.9148 23.8223 16.8293 24.8511 17.9573 24.8511H46.0424C47.1705 24.8511 48.085 23.8223 48.085 22.5532V22.2979C48.085 21.0288 47.1705 20 46.0424 20Z" fill="white"/>
<path d="M46.0424 29.4468H23.5743C22.5873 29.4468 21.7871 30.4756 21.7871 31.7447V32C21.7871 33.2691 22.5873 34.2979 23.5743 34.2979H46.0424C47.0295 34.2979 47.8296 33.2691 47.8296 32V31.7447C47.8296 30.4756 47.0295 29.4468 46.0424 29.4468Z" fill="white"/>
<path d="M46.0424 39.1489H17.9573C16.8293 39.1489 15.9148 40.1777 15.9148 41.4468V41.7021C15.9148 42.9712 16.8293 44 17.9573 44H46.0424C47.1705 44 48.085 42.9712 48.085 41.7021V41.4468C48.085 40.1777 47.1705 39.1489 46.0424 39.1489Z" fill="white"/>
</svg>
