<svg width="300" height="73" viewBox="0 0 300 73" fill="none" xmlns="http://www.w3.org/2000/svg">
<path d="M1.76211 14.0724C3.0837 14.952 4.40529 15.3917 6.1674 15.3917C8.81057 15.3917 10.5727 14.952 11.8943 13.6327C12.3348 13.6327 12.3348 13.1929 12.3348 13.1929C12.3348 12.7531 12.3348 12.3134 11.8943 12.3134C9.69163 11.8736 8.37005 10.9941 8.37005 10.1146C8.37005 8.35551 9.69163 6.59645 12.3348 5.27716C14.5374 4.39764 16.7401 3.51811 19.3833 3.51811C20.7048 3.51811 22.0264 3.95787 23.348 3.95787C21.5859 4.39764 20.2643 4.39764 19.3833 4.39764C18.0617 5.27716 16.7401 6.15669 15.859 7.91574C15.4185 8.79527 14.0969 14.0724 10.1322 21.9882C5.28634 31.2232 0.440529 34.3016 0.440529 35.1811C0.440529 35.6208 1.76211 35.6208 2.20264 35.6208C3.52423 35.6208 12.3348 35.6208 12.3348 35.6208L12.7753 35.1811L15.859 27.7051C19.3833 27.2653 23.348 25.9461 26.8723 24.187C29.5154 22.4279 32.1586 20.2291 34.3612 18.0303C37.0044 14.952 38.326 12.3134 38.326 9.23503C38.326 5.71693 36.1234 3.07834 32.5991 1.75905C29.956 0.439763 26.4317 0 22.467 0C18.5022 0 15.4185 0.439764 11.8943 1.31929C9.2511 1.75905 6.60793 2.63858 4.40529 4.39764C1.32159 6.15669 0 8.35551 0 10.5543C0 12.3134 0.440529 13.6327 1.76211 14.0724ZM29.0749 10.1146C29.0749 12.7531 28.1938 15.3917 25.5507 18.0303C23.348 20.6689 20.7048 22.4279 17.6211 23.3075L25.1101 4.8374C27.7533 5.71693 29.0749 7.91574 29.0749 10.1146Z" fill="#D9E3EB"/>
<path d="M36.565 16.2705C36.565 16.7103 36.565 16.7103 37.0055 17.15C37.446 17.5898 37.8865 18.0296 37.8865 18.4693C37.8865 18.9091 37.446 19.3488 37.446 19.7886L32.1597 34.3008C31.7192 34.7406 31.7191 35.1803 31.7191 35.1803C31.7191 35.1803 31.7191 35.6201 32.6002 35.6201H38.7676C39.2081 35.6201 39.6487 35.1803 39.6487 34.3008L45.8161 19.3488C46.2566 18.9091 46.6971 18.9091 47.1377 18.9091C48.8998 18.9091 49.7808 19.7886 49.7808 21.1079C49.7808 21.5477 49.3403 22.4272 48.8998 23.3067C48.4592 23.3067 48.0187 23.7465 47.5782 23.7465C47.1377 24.1862 47.1377 24.1862 47.1377 24.626C47.1377 25.0658 47.1377 25.0658 47.5782 25.0658C49.7808 25.0658 51.9835 24.626 53.7456 23.7465C56.3888 22.4272 57.2698 20.6681 57.2698 18.4693C57.2698 16.2705 55.5077 14.9512 51.5429 14.9512C49.3403 14.9512 47.1376 15.391 45.3755 16.2705C45.3755 15.8307 44.4945 15.391 43.1729 15.391H38.3271C37.0055 15.391 36.565 15.8307 36.565 16.2705Z" fill="#D9E3EB"/>
<path d="M62.5553 35.6204C65.639 35.6204 68.2822 34.7409 70.4848 33.4216C73.128 31.6625 74.8901 29.9035 76.2117 27.2649C77.0928 25.5058 77.9738 23.7468 77.9738 21.9877C77.9738 19.7889 77.0928 18.0299 75.7712 16.7106C74.4496 15.831 72.6875 15.3913 70.4848 15.3913C66.5201 15.3913 62.9959 16.7106 60.3527 19.3491C57.269 21.9877 55.9474 25.5058 55.9474 29.4637C55.9474 33.4216 58.15 35.6204 62.5553 35.6204ZM64.3174 25.0661C65.1985 23.307 66.0795 21.548 66.9606 20.2287C68.2822 18.9094 69.1633 18.4696 70.0443 18.4696C70.4848 18.4696 70.4848 18.9094 70.4848 20.2287C70.4848 21.9877 70.0443 23.7468 69.1633 26.3854C67.4011 30.3432 65.639 32.1023 63.8769 32.1023C62.9959 32.1023 62.9958 31.6625 62.9958 30.783C62.9958 29.0239 63.4364 27.2649 64.3174 25.0661Z" fill="#D9E3EB"/>
<path d="M81.9378 18.9091C81.9378 19.3488 81.9378 19.7886 81.4972 20.6681L76.2109 34.3008C76.2109 34.7406 76.2109 34.7406 76.2109 35.1803C76.2109 35.1803 76.2109 35.6201 76.6514 35.6201H82.8188C83.2594 35.6201 83.6999 35.1803 84.1404 34.3008L89.8673 19.3488C90.7483 18.9091 91.1889 18.9091 92.0699 18.9091C92.951 18.9091 93.3915 19.3488 93.3915 19.7886C93.3915 20.2284 93.3915 20.6681 92.951 21.1079L88.1052 34.3008C87.6647 34.7406 87.6647 34.7406 87.6647 34.7406C87.6647 35.1803 88.1052 35.6201 88.5457 35.6201H94.7131C95.1536 35.6201 95.5942 35.1803 95.5942 34.3008C98.6779 27.7043 100.44 22.4272 101.762 19.3488C102.202 18.9091 103.083 18.9091 103.964 18.9091C104.405 18.9091 104.845 19.3488 104.845 20.2284C104.845 21.1079 104.405 23.3067 102.643 26.3851C101.321 29.9032 100.44 32.102 100.44 32.9815C100.44 34.7406 101.762 35.6201 103.964 35.6201C105.286 35.6201 107.048 35.1803 109.251 34.3008C111.894 33.4213 113.215 32.5418 113.215 31.6622C113.215 31.2225 112.775 30.7827 112.334 30.7827C112.334 30.7827 111.894 31.2225 111.453 31.2225C111.013 31.2225 111.013 31.2225 110.572 31.2225C109.691 31.2225 109.251 30.7827 109.251 29.9032C109.251 29.0236 110.132 27.2646 111.453 24.626C112.775 21.5477 113.215 19.3488 113.215 18.0296C113.215 16.2705 111.453 14.9512 107.929 14.9512C105.726 14.9512 103.083 15.391 100.881 16.2705C100.44 15.391 99.1184 14.9512 96.4752 14.9512C93.8321 14.9512 91.6294 15.391 89.8673 16.2705C89.4268 15.8307 88.5457 15.391 87.2241 15.391H82.3783C81.4972 15.391 81.0567 15.8307 81.0567 16.2705C81.0567 16.7103 81.0567 17.15 81.0567 17.15C81.4972 17.5898 81.9378 18.0296 81.9378 18.9091Z" fill="#D9E3EB"/>
<path d="M120.265 35.6204C123.348 35.6204 125.992 34.7409 128.635 33.4216C130.837 31.6625 132.599 29.9035 133.921 27.2649C135.243 25.5058 135.683 23.7468 135.683 21.9877C135.683 19.7889 134.802 18.0299 133.481 16.7106C132.159 15.831 130.397 15.3913 128.194 15.3913C124.229 15.3913 120.705 16.7106 118.062 19.3491C114.978 21.9877 113.657 25.5058 113.657 29.4637C113.657 33.4216 115.859 35.6204 120.265 35.6204ZM122.027 25.0661C122.908 23.307 123.789 21.548 124.67 20.2287C125.992 18.9094 126.873 18.4696 127.754 18.4696C128.194 18.4696 128.194 18.9094 128.194 20.2287C128.194 21.9877 127.754 23.7468 126.873 26.3854C125.11 30.3432 123.348 32.1023 121.586 32.1023C120.705 32.1023 120.705 31.6625 120.705 30.783C120.705 29.0239 121.146 27.2649 122.027 25.0661Z" fill="#D9E3EB"/>
<path d="M148.898 33.422C150.66 34.7413 153.744 35.6208 156.827 35.6208C160.792 35.6208 164.316 34.7413 167.4 32.9823C170.924 31.2232 172.687 28.1449 172.687 24.187C172.687 22.4279 171.365 18.9098 169.162 14.952C166.519 10.5543 165.198 7.91574 165.198 7.03622C165.198 6.15669 165.638 5.71693 166.079 4.8374C166.96 4.39764 167.841 4.39764 168.722 4.39764C169.603 4.39764 170.043 4.39764 170.924 4.8374C171.805 5.27716 172.246 5.71693 172.246 6.15669C172.246 7.91574 171.365 8.79527 169.603 10.1146L169.162 10.5543C169.162 10.9941 170.043 11.4339 171.805 11.4339C174.008 11.4339 175.77 10.9941 177.092 10.1146C179.294 9.23503 180.175 7.91574 180.175 6.15669C180.175 3.95787 178.854 2.19882 176.211 1.31929C174.449 0.439764 172.246 0 169.603 0C166.519 0 163.435 0.879527 161.233 1.75905C158.149 3.07834 156.387 5.27716 156.387 8.35551C156.387 9.6748 157.709 12.3134 160.352 16.2713C162.995 20.2291 164.316 23.3075 164.316 24.6268C164.316 26.3858 163.876 28.1449 162.554 29.0244C161.673 30.3437 160.352 31.2232 158.59 31.2232C155.506 31.2232 153.744 29.4642 153.744 26.3858C153.744 25.0665 154.184 23.3075 155.065 21.9882C155.946 20.6689 157.268 19.3496 159.03 18.9098C159.03 18.9098 159.471 18.9098 159.471 18.4701C159.471 18.0303 159.03 17.5905 158.59 17.5905C149.338 18.0303 144.933 20.6689 144.933 25.946C144.933 29.0244 146.255 31.663 148.898 33.422Z" fill="#D9E3EB"/>
<path d="M173.569 29.0236C173.569 31.2225 174.45 32.9815 176.653 33.861C177.974 35.1803 180.177 35.6201 182.82 35.6201C186.785 35.6201 189.868 34.7406 191.631 32.9815C192.071 32.5417 192.512 32.102 192.512 31.6622C192.512 31.2225 192.071 31.2225 192.071 31.2225C191.631 31.2225 191.631 31.2225 191.19 31.2225C189.868 31.6622 188.106 32.102 186.344 32.102C183.26 32.102 181.939 31.2225 181.939 29.0236C181.939 28.5839 181.939 28.5839 181.939 28.1441C185.904 28.1441 188.987 27.7044 190.749 26.8248C194.274 25.9453 195.595 23.7465 195.595 20.2284C195.595 18.4693 194.714 17.15 193.393 16.2705C191.631 15.391 190.309 14.9512 188.106 14.9512C184.582 14.9512 181.058 16.7103 177.974 19.7886C175.331 22.867 173.569 25.9453 173.569 29.0236ZM184.142 21.5477C185.463 19.7886 186.785 18.9091 187.666 18.9091C188.106 18.9091 188.547 19.3488 188.547 20.2284C188.547 23.7465 186.344 25.5055 182.379 25.5055C182.82 24.626 183.26 23.3067 184.142 21.5477Z" fill="#D9E3EB"/>
<path d="M200 18.4693C200 18.9091 199.559 19.3488 199.559 19.7886L194.273 34.3008C193.832 34.7406 193.832 35.1803 193.832 35.1803C193.832 35.1803 194.273 35.6201 194.713 35.6201H200.881C201.321 35.6201 201.762 35.1803 201.762 34.3008L207.929 19.3488C208.37 18.9091 208.81 18.9091 209.691 18.9091C211.013 18.9091 211.894 19.7886 211.894 21.1079C211.894 21.5477 211.453 22.4272 211.013 23.3067C210.572 23.3067 210.132 23.7465 209.691 23.7465C209.691 24.1862 209.251 24.1862 209.251 24.626C209.251 25.0658 209.691 25.0658 209.691 25.0658C211.894 25.0658 214.097 24.626 215.859 23.7465C218.502 22.4272 219.383 20.6681 219.383 18.4693C219.383 16.2705 217.621 14.9512 213.656 14.9512C211.453 14.9512 209.251 15.391 207.929 16.2705C207.489 15.8307 206.608 15.391 205.727 15.391H200.44C199.559 15.391 198.678 15.8307 198.678 16.2705C198.678 16.7103 199.119 16.7103 199.119 17.15C199.559 17.5898 200 18.0296 200 18.4693Z" fill="#D9E3EB"/>
<path d="M221.146 19.3491C221.146 20.2287 221.146 21.548 220.706 23.7468C220.265 26.8251 219.825 29.0239 219.825 30.3432C219.825 32.9818 220.265 34.7409 221.146 35.1806C221.146 35.6204 221.587 35.6204 222.027 35.6204C224.671 35.6204 227.754 34.3011 231.279 31.2228C233.922 29.0239 236.124 26.3854 237.887 23.307C239.649 20.6684 240.53 18.9094 240.53 18.0299C240.53 16.2708 239.208 15.3913 236.124 15.3913H232.16C231.719 15.3913 231.279 15.831 231.279 16.2708C231.279 16.7106 231.719 16.7106 231.719 17.1503C232.16 17.5901 232.16 17.5901 232.16 18.0299C232.6 18.4696 232.6 18.9094 232.6 19.3491C232.6 20.6684 232.16 22.4275 231.279 24.6263C229.957 26.8251 229.076 28.5842 227.754 29.9035C227.754 29.4637 227.754 28.5842 227.754 28.1444C227.754 26.8251 227.754 25.0661 228.635 22.4275C229.076 20.2287 229.076 18.4696 229.076 17.5901C229.076 16.2708 228.635 15.3913 227.314 15.3913H221.146C220.265 15.3913 219.825 15.831 219.825 16.7106C219.825 16.7106 219.825 17.1503 220.265 17.5901C220.706 18.4696 221.146 18.9094 221.146 19.3491Z" fill="#D9E3EB"/>
<path d="M242.731 17.1503C242.731 17.5901 243.172 18.0299 243.172 18.4696C243.172 18.9094 243.172 19.3491 242.731 19.7889C242.731 20.2287 242.731 20.2287 242.731 20.2287L238.326 30.783C237.886 31.2228 237.886 32.1023 237.886 32.5421C237.886 34.7409 238.767 35.6204 240.969 35.6204C243.612 35.6204 246.256 34.7409 249.78 32.5421C250.22 32.5421 250.22 32.1023 250.22 31.6625C250.22 31.2228 250.22 30.783 249.339 30.783C249.339 30.783 248.899 31.2228 248.458 31.2228C248.018 31.2228 247.577 31.2228 247.137 31.2228C246.696 31.2228 246.696 31.2228 246.696 30.783V30.3432L251.101 18.4696C251.101 18.0299 251.542 17.5901 251.542 17.1503C251.542 15.831 250.661 15.3913 248.899 15.3913H243.172C242.291 15.3913 241.85 15.831 241.85 16.2708C241.85 16.7106 242.291 17.1503 242.731 17.1503Z" fill="#D9E3EB"/>
<path d="M245.374 13.1931C246.255 13.6329 247.136 13.6329 248.017 13.6329H248.458C249.339 13.6329 250.22 13.6329 250.661 13.1931C251.542 12.7534 251.982 12.3136 251.982 11.4341V10.9943C251.982 10.1148 251.542 9.67503 250.661 9.23526C249.779 8.7955 248.898 8.35574 248.017 8.35574H247.577C246.696 8.35574 245.815 8.7955 245.374 8.7955C244.493 9.23526 244.053 10.1148 244.053 10.9943C244.053 11.8738 244.493 12.7534 245.374 13.1931Z" fill="#D9E3EB"/>
<path d="M253.745 33.861C255.507 34.7406 258.15 35.6201 260.793 35.6201C262.555 35.6201 264.758 35.1803 266.52 34.3008C268.723 33.861 270.485 32.5417 271.366 31.2225C271.366 30.7827 271.806 30.7827 271.806 30.7827C271.806 30.3429 271.366 29.9032 270.925 29.9032C270.925 29.9032 270.044 30.3429 267.842 31.2225C266.52 31.2225 265.198 31.6622 263.877 31.6622C260.353 31.6622 259.031 30.3429 259.031 27.2646C259.031 26.3851 259.031 25.5055 259.472 24.1862C259.912 23.3067 260.353 21.9874 261.234 20.6681C262.555 19.3488 263.436 18.4693 264.317 18.4693C266.079 18.4693 266.961 19.3488 266.961 21.1079C266.961 21.9874 266.52 23.3067 265.639 25.0658C265.639 25.5055 265.639 25.5055 266.079 25.5055C267.842 25.5055 269.604 25.0658 270.925 24.1862C272.247 23.3067 273.128 21.9874 273.128 20.2284C273.128 18.4693 271.806 17.15 270.044 16.2705C268.723 15.391 266.52 14.9512 264.758 14.9512C261.234 14.9512 258.15 16.2705 255.066 18.9091C252.423 21.1079 250.661 24.1862 250.661 27.7044C250.661 30.3429 251.983 32.5418 253.745 33.861Z" fill="#D9E3EB"/>
<path d="M300 30.3429C299.559 29.9032 299.119 29.4634 297.357 29.4634C296.035 29.4634 294.714 29.9032 293.392 30.3429L290.749 31.2225C289.868 31.2225 290.749 31.2225 289.868 31.2225C288.546 31.6622 286.784 32.102 285.022 32.102C281.938 32.102 280.176 31.2225 280.176 29.0236C280.176 28.5839 280.176 28.5839 280.617 28.1441C284.581 28.1441 287.665 27.7044 289.427 26.8248C292.511 25.9453 294.273 23.7465 294.273 20.2284C294.273 18.4693 293.392 17.15 291.63 16.2705C290.308 15.391 288.987 14.9512 286.784 14.9512C283.26 14.9512 279.736 16.7103 276.652 19.7886C273.568 22.867 272.247 25.9453 272.247 29.0236C272.247 31.2225 273.128 32.9815 274.89 33.861C276.652 35.1803 278.855 35.6201 281.498 35.6201C284.141 35.6201 286.344 35.1803 288.106 34.3008C290.749 33.4213 292.071 32.5418 292.071 32.9815C292.511 33.4213 292.07 34.3008 290.749 35.1803C289.427 36.0599 287.225 36.9394 285.022 37.8189C281.057 39.578 276.652 40.8973 271.806 41.7768C267.401 42.6563 262.555 43.5358 257.269 43.9756C252.423 44.4154 247.137 44.8551 242.291 44.8551C237.004 44.8551 231.718 44.8551 226.872 44.8551C221.586 44.8551 217.181 44.4154 212.775 44.4154C208.37 44.4154 204.405 44.4154 200 43.9756C196.035 43.9756 191.63 43.9756 186.784 43.9756C182.379 43.5358 177.533 43.5358 172.247 43.5358C159.031 43.5358 147.137 43.5358 137.004 43.5358C126.432 43.9756 116.74 43.9756 108.37 44.4154C99.5595 44.8551 91.1894 45.2949 83.2599 45.7347C75.7709 46.1744 67.8414 46.6142 59.9119 47.4937C55.9471 47.9335 51.5419 48.3732 47.1366 49.2528C43.1718 49.6925 38.7665 50.5721 34.3612 51.8913C29.9559 52.7709 25.9912 54.0902 22.0264 55.4095C18.0617 56.7287 14.5374 58.048 11.4537 59.8071C7.92952 61.5661 5.72687 63.3252 3.52423 65.0843C1.76211 67.2831 0.440529 69.4819 0 71.6807C2.64317 70.8012 6.1674 70.3614 10.1322 69.9217C14.0969 69.9217 18.5022 69.4819 22.9075 69.4819C27.7533 69.0421 32.5991 69.0421 37.8855 69.0421C42.7313 69.4819 48.0176 69.4819 53.304 69.9217C58.1498 70.3614 62.5551 70.8012 66.9604 71.2409C70.9251 71.6807 74.4493 72.5602 77.533 73C77.9736 71.6807 78.4141 69.9217 79.2952 68.6024C80.6167 67.2831 81.9383 65.9638 84.141 64.6445C87.2247 62.8854 90.7489 61.5662 94.2731 60.2469C97.7974 58.9276 101.762 57.6083 106.608 56.7287C111.013 55.4095 116.3 54.5299 122.026 54.0902C127.753 53.2106 134.802 52.7709 142.291 52.3311C154.185 51.4516 165.639 51.0118 177.533 51.0118C188.987 50.5721 200.441 50.5721 212.335 50.1323C218.943 49.6925 225.551 49.6925 232.599 49.2528C239.207 48.813 246.256 48.3732 252.423 47.4937C259.031 46.6142 265.198 45.7347 271.366 44.4154C277.093 42.6563 282.379 40.8973 287.225 38.2587L296.035 33.861C297.797 32.9815 299.119 32.5418 299.559 31.6622C300 31.2225 300 30.7827 300 30.3429ZM282.819 21.5477C284.141 19.7886 285.022 18.9091 286.344 18.9091C286.784 18.9091 287.225 19.3488 287.225 20.2284C287.225 23.7465 285.022 25.5055 281.057 25.5055C281.057 24.626 281.938 23.3067 282.819 21.5477Z" fill="#D9E3EB"/>
</svg>
