<svg width="38" height="37" viewBox="0 0 38 37" fill="none" xmlns="http://www.w3.org/2000/svg">
<path d="M37.8522 18.4999C37.8522 28.7166 29.5107 37 19.2233 37C8.93369 37 0.592529 28.7166 0.592529 18.4999C0.592529 8.28216 8.93369 0 19.2233 0C29.5107 0 37.8522 8.28216 37.8522 18.4999ZM25.0057 11.5008C25.7134 11.5008 26.2862 12.0708 26.2862 12.7724C26.2862 13.4753 25.7134 14.0441 25.0057 14.0441C24.2982 14.0441 23.7254 13.4753 23.7254 12.7724C23.7254 12.0708 24.2982 11.5008 25.0057 11.5008ZM19.3129 21.8956C17.4122 21.8956 15.8663 20.3604 15.8663 18.4739C15.8663 16.5875 17.4122 15.0523 19.3129 15.0523C21.2126 15.0523 22.7576 16.5875 22.7576 18.4739C22.7576 20.3604 21.2126 21.8956 19.3129 21.8956ZM19.3129 13.1323C22.2782 13.1323 24.6919 15.528 24.6919 18.4739C24.6919 21.4195 22.2782 23.8155 19.3129 23.8155C16.3463 23.8155 13.9328 21.4195 13.9328 18.4739C13.9328 15.528 16.3463 13.1323 19.3129 13.1323ZM14.8614 9.66886C12.3773 9.66886 10.3564 11.6756 10.3564 14.1434V22.8041C10.3564 25.2709 12.3773 27.279 14.8614 27.279H23.5829C26.0683 27.279 28.0902 25.2709 28.0902 22.8041V14.1434C28.0902 11.6756 26.0683 9.66886 23.5829 9.66886H14.8614ZM23.5829 29.319C27.2003 29.319 30.1447 26.3962 30.1447 22.8041V14.1434C30.1447 10.5513 27.2003 7.62853 23.5829 7.62853H14.8614C11.2442 7.62853 8.3009 10.5513 8.3009 14.1434V22.8041C8.3009 26.3962 11.2442 29.319 14.8614 29.319H23.5829Z" fill="#525A63"/>
</svg>
