<svg width="64" height="64" viewBox="0 0 64 64" fill="none" xmlns="http://www.w3.org/2000/svg">
<path d="M32 64C49.6731 64 64 49.6731 64 32C64 14.3269 49.6731 0 32 0C14.3269 0 0 14.3269 0 32C0 49.6731 14.3269 64 32 64Z" fill="#E00013"/>
<path d="M16 28.4445C17.0667 29.1556 18.4889 29.5111 20.2667 29.5111C22.7556 29.5111 24.5334 29.1556 25.9556 28.0889C26.3111 27.7333 26.6667 27.7333 26.6667 27.3778C26.6667 27.0222 26.3111 26.6667 25.9556 26.6667C23.4667 26.3111 22.4 25.6 22.4 24.1778C22.4 22.4 23.4667 20.9778 26.3111 19.5556C28.4445 18.4889 30.9334 18.1333 33.4223 18.1333C34.8445 18.1333 36.2667 18.1333 37.3334 18.4889C35.5556 18.4889 34.4889 18.4889 33.7778 18.8445C32 19.2 30.5778 20.2667 29.8667 22.0445C29.1556 23.1111 28.0889 28.4445 23.8223 36.2667C19.5556 45.5111 14.2223 48.7111 14.5778 49.7778C14.5778 50.1333 15.6445 49.7778 16 49.7778C17.7778 49.7778 26.3111 49.7778 26.3111 49.7778C26.6667 49.7778 26.6667 49.7778 26.6667 49.4222L29.8667 42.3111C33.4223 41.6 37.3334 40.5333 40.8889 38.4C43.7334 36.6222 46.2223 34.8445 48.3556 32.3556C51.2 29.5111 52.2667 26.3111 52.2667 23.4667C52.2667 19.9111 50.4889 17.4222 46.5778 16C43.7334 14.9333 40.5334 14.2222 36.2667 14.2222C32.7111 14.2222 29.1556 14.5778 25.9556 15.2889C23.1111 16 20.6223 17.0667 18.4889 18.4889C15.6445 20.2667 13.8667 22.4 13.8667 24.8889C13.8667 26.6667 14.5778 27.7333 16 28.4445V28.4445ZM43.3778 24.5333C43.3778 27.0222 41.9556 29.8667 39.8223 32.3556C37.3334 35.2 34.4889 36.9778 31.6445 37.6889L39.1111 19.2C41.9556 20.2667 43.3778 22.0445 43.3778 24.5333V24.5333Z" fill="white"/>
</svg>
