<svg width="1825" height="554" viewBox="0 0 1825 554" fill="none" xmlns="http://www.w3.org/2000/svg">
<g filter="url(#filter0_f_105_18)">
<path d="M1703.24 172.283H1708.49V160.088H1703.24V172.283ZM3.99781 454V403L2.55859 255.26H53.9593V310.881H93.0239V268.709H147.28V186.759H209.761V290.479H283.892V150.628H306.508V142.649H334.265V150.628H346.715V189.836H411.937V195.649H402.685V260.503H428.728V65.4859H425.415V62.4085H466.993V65.4859H463.909V74.4902H518.965V310.881H564.311L581.102 248.307H620.852V188.012H661.516V162.139H656.604V159.518H664.943V117.574H666.542V159.518H672.938V151.311H674.994V159.518H694.984V162.139H690.529V188.012H698.068V266.999H759.748V174.449H819.944V310.881H836.164V42.4623H847.815V46.4515L869.061 41.2085V33.7999H880.597V38.3591L901.957 33.1161V24.7956H913.494V30.2666L934.739 25.0236V17.3871H946.39V22.1741L967.636 16.9311V9.52256H979.173V297.318H994.821V204.881H1091V310.881H1114.87V299.027H1110.53V295.836H1114.87V255.602H1110.53V252.41H1114.87V212.176H1110.53V208.984H1114.87V168.75H1110.53V165.559H1114.87V125.324H1110.53V122.133H1114.87V81.8987H1110.53V78.5934H1114.87V36.9913H1107.45V33.7999H1114.87H1103.68V25.0236H1121.04V15.2215H1118.75V12.372H1156.9V15.2215H1154.62V25.0236H1224.64V33.7999H1213.56H1220.87V36.9913H1213.56V78.5934H1217.79V81.8987H1213.56V122.133H1217.79V125.324H1213.56V165.559H1217.79V168.75H1213.56V208.984H1217.79V212.176H1213.56V252.41H1217.79V255.602H1213.56V295.836H1217.79V297.318H1241.54V156.213H1237.89V148.69H1262.33V128.402H1274.1V148.69H1284.72V128.402H1295.34V148.69H1316.02V128.402H1379.41V148.69H1394.26V156.213H1385.81V257.995L1437.9 281.133V176.273H1484.96V69.5891H1481.64V61.4966H1488.73V51.2386H1544.92V35.5096H1566.4L1569.6 25.3655H1574.85V7.12902H1575.99C1574.85 7.01504 1573.94 5.87526 1573.94 4.50752C1573.94 3.13978 1574.85 2 1576.11 2C1577.25 2 1578.16 3.13978 1578.16 4.50752C1578.16 5.87526 1577.25 7.01504 1576.11 7.12902H1577.25V25.3655H1587.07V35.5096V51.2386H1595.3V61.4966H1602.38V69.5891H1599.07V233.604H1634.59V300.395H1696.84V151.311H1693.07V144.701H1747.56V121.221H1749.16V144.701H1758.29V116.092H1759.89V144.701H1772.91V151.311H1769.6V224.827H1822.56V552H1764.15H1601.66H1294.63H919.629H2.55863L3.99781 498V454ZM1703.24 192.002H1708.49V179.806H1703.24V192.002ZM1716.72 172.283H1721.97V160.088H1716.72V172.283ZM1123.78 68.7912H1128.81V47.4773H1123.78V68.7912ZM1149.25 68.7912H1154.39V47.4773H1149.25V68.7912ZM1174.72 68.7912H1179.86V47.4773H1174.72V68.7912ZM1202.82 68.7912H1205.34V47.4773H1202.82V68.7912ZM1200.2 68.7912H1202.82V47.4773H1200.2V68.7912ZM1123.78 112.673H1128.81V91.3589H1123.78V112.673ZM1149.25 112.673H1154.39V91.3589H1149.25V112.673ZM1174.72 112.673H1179.86V91.3589H1174.72V112.673ZM1202.82 112.673H1205.34V91.3589H1202.82V112.673ZM1200.2 112.673H1202.82V91.3589H1200.2V112.673ZM1123.78 157.466H1128.81V136.266H1123.78V157.466ZM1149.25 157.466H1154.39V136.266H1149.25V157.466ZM1174.72 157.466H1179.86V136.266H1174.72V157.466ZM1202.82 157.466H1205.34V136.266H1202.82V157.466ZM1200.2 157.466H1202.82V136.266H1200.2V157.466ZM1123.78 202.374H1128.81V201.576H1123.78V202.374ZM1123.78 201.576H1128.81V181.174H1123.78V201.576ZM1149.25 202.374H1154.39V201.576H1149.25V202.374ZM1149.25 201.576H1154.39V181.174H1149.25V201.576ZM1179.86 202.374H1174.72V201.576H1179.86V181.174V202.374ZM1174.72 201.576H1179.86V181.174H1174.72V201.576ZM1205.34 202.374H1200.2V201.576H1202.82V181.174H1205.34V202.374ZM1200.2 201.576H1202.82V181.174H1200.2V201.576ZM1123.78 243.178H1128.81V221.864H1123.78V243.178ZM1149.25 243.178H1154.39V221.864H1149.25V243.178ZM1174.72 243.178H1179.86V221.864H1174.72V243.178ZM1123.78 288.655H1128.81V288.427H1123.78V288.655ZM1123.78 288.427H1128.81V267.341H1123.78V288.427ZM1149.25 288.655H1154.39V288.427H1149.25V288.655ZM1149.25 288.427H1154.39V267.341H1149.25V288.427ZM1179.86 288.655H1174.72V288.427H1179.86V267.341V288.655ZM1174.72 288.427H1179.86V267.341H1174.72V288.427ZM1202.82 243.178H1205.34V221.864H1202.82V243.178ZM1200.2 243.178H1202.82V221.864H1200.2V243.178ZM1496.15 101.731H1500.95V89.4213H1496.15V101.731ZM1496.15 89.4213H1500.95V88.0536H1496.15V89.4213ZM1511.11 101.731H1515.91V89.4213H1511.11V101.731ZM1511.11 89.4213H1515.91V88.0536H1511.11V89.4213ZM1525.28 101.731H1530.07V89.4213H1525.28V101.731ZM1525.28 89.4213H1530.07V88.0536H1525.28V89.4213ZM1540.24 101.731H1545.04V89.4213H1540.24V101.731ZM1540.24 89.4213H1545.04V88.0536H1540.24V89.4213ZM1496.15 126.122H1500.95V112.559H1496.15V126.122ZM1511.11 126.122H1515.91V112.559H1511.11V126.122ZM1525.28 126.122H1530.07V112.559H1525.28V126.122ZM1540.24 126.122H1545.04V112.559H1540.24V126.122ZM1496.15 152.223H1500.95V138.546H1496.15V152.223ZM1511.11 152.223H1515.91V138.546H1511.11V152.223ZM1525.28 152.223H1530.07V138.546H1525.28V152.223ZM1540.24 152.223H1545.04V138.546H1540.24V152.223ZM1556.57 101.731H1561.37V89.4213H1556.57V101.731ZM1556.57 89.4213H1561.37V88.0536H1556.57V89.4213ZM1556.57 126.122H1561.37V112.559H1556.57V126.122ZM1571.54 101.731H1576.33V89.4213H1571.54V101.731ZM1571.54 89.4213H1576.33V88.0536H1571.54V89.4213ZM854.554 68.4493H862.207V62.1805H854.554V68.4493ZM854.554 81.6708H862.207V68.4493H854.554V81.6708ZM854.554 109.254H862.207V99.4514H854.554V109.254ZM854.554 118.942H862.207V109.254H854.554V118.942ZM854.554 150.058H862.207V136.836H854.554V150.058ZM854.554 156.327H862.207V150.058H854.554V156.327ZM854.554 190.862H862.207V174.107H854.554V190.862ZM854.554 193.597H862.207V190.862H854.554V193.597ZM854.554 228.817H862.207V214.341H854.554V228.817ZM854.554 214.341H862.207V209.326H854.554V214.341ZM854.554 266.088H862.207V255.146H854.554V266.088ZM854.554 255.146H862.207V246.597H854.554V255.146ZM887.451 68.4493H895.104V62.1805H887.451V68.4493ZM887.451 81.6708H895.104V68.4493H887.451V81.6708ZM887.451 109.254H895.104V99.4514H887.451V109.254ZM887.451 118.942H895.104V109.254H887.451V118.942ZM887.451 150.058H895.104V136.836H887.451V150.058ZM887.451 156.327H895.104V150.058H887.451V156.327ZM887.451 190.862H895.104V174.107H887.451V190.862ZM887.451 193.597H895.104V190.862H887.451V193.597ZM887.451 228.817H895.104V214.341H887.451V228.817ZM887.451 214.341H895.104V209.326H887.451V214.341ZM887.451 266.088H895.104V255.146H887.451V266.088ZM887.451 255.146H895.104V246.597H887.451V255.146ZM920.347 68.4493H928V62.1805H920.347V68.4493ZM920.347 81.6708H928V68.4493H920.347V81.6708ZM920.347 109.254H928V99.4514H920.347V109.254ZM920.347 118.942H928V109.254H920.347V118.942ZM920.347 150.058H928V136.836H920.347V150.058ZM920.347 156.327H928V150.058H920.347V156.327ZM920.347 190.862H928V174.107H920.347V190.862ZM920.347 193.597H928V190.862H920.347V193.597ZM920.347 228.817H928V214.341H920.347V228.817ZM920.347 214.341H928V209.326H920.347V214.341ZM920.347 266.088H928V255.146H920.347V266.088ZM920.347 255.146H928V246.597H920.347V255.146ZM953.129 68.4493H960.782V62.1805H953.129V68.4493ZM953.129 81.6708H960.782V68.4493H953.129V81.6708ZM953.129 109.254H960.782V99.4514H953.129V109.254ZM953.129 118.942H960.782V109.254H953.129V118.942ZM953.129 150.058H960.782V136.836H953.129V150.058ZM953.129 156.327H960.782V150.058H953.129V156.327ZM953.129 190.862H960.782V174.107H953.129V190.862ZM953.129 193.597H960.782V190.862H953.129V193.597ZM953.129 228.817H960.782V214.341H953.129V228.817ZM953.129 214.341H960.782V209.326H953.129V214.341ZM953.129 266.088H960.782V255.146H953.129V266.088ZM953.129 255.146H960.782V246.597H953.129V255.146Z" fill="#DADCDF"/>
</g>
<defs>
<filter id="filter0_f_105_18" x="0.558594" y="0" width="1824" height="554" filterUnits="userSpaceOnUse" color-interpolation-filters="sRGB">
<feFlood flood-opacity="0" result="BackgroundImageFix"/>
<feBlend mode="normal" in="SourceGraphic" in2="BackgroundImageFix" result="shape"/>
<feGaussianBlur stdDeviation="1" result="effect1_foregroundBlur_105_18"/>
</filter>
</defs>
</svg>
