<svg width="1841" height="820" viewBox="0 0 1841 820" fill="none" xmlns="http://www.w3.org/2000/svg">
<g filter="url(#filter0_f_104_12)">
<path d="M708.387 610.029V288.107H721.414V150.598H736.516V59.6497H765.913V10H769.948V59.6497H779.055V19.9528H783.205V59.6497H829.548V113.761H837.964V150.598H861.596V288.107H870.704V610.029H1366.41L1348.08 111.702L1516.97 145.907V610.029V785H1830.5V810H1366.41H10.5V785H243.227V224.958H239.307V217.064H247.838V206.997H257.637V203.222V191.553V181.6H269.396V163.639H270.894C272.278 163.639 273.431 162.495 273.431 161.123C273.431 159.75 272.278 158.606 270.894 158.606C269.396 158.606 268.358 159.75 268.358 161.123C268.358 162.495 269.396 163.639 270.894 163.639H272.278V181.6H278.618L282.538 191.553H308.361V206.997H375.8V217.064H384.331V224.958H380.412V610.029H491.197V211.916H488.892V208.37H505.146V187.206H503.071V183.774H517.942V171.533H515.637V168.902H523.015V157.347H530.047V134.467H532.468V157.347H535.235V116.163H537.656V157.347H544.688V168.902H551.143V171.533H549.76V183.774H564.747V187.206H562.556V208.37H578.811V211.916H576.505V610.029H708.387ZM744.932 86.6481H751.272V69.9457H744.932V86.6481ZM760.725 86.6481H767.181V69.9457H760.725V86.6481ZM776.634 86.6481H783.09V69.9457H776.634V86.6481ZM792.543 86.6481H798.999V69.9457H792.543V86.6481ZM744.932 114.676H751.272V97.8593H744.932V114.676ZM760.725 114.676H767.181V97.8593H760.725V114.676ZM776.634 114.676H783.09V97.8593H776.634V114.676ZM792.543 114.676H798.999V97.8593H792.543V114.676ZM744.932 142.59H751.272V125.773H744.932V142.59ZM760.725 142.59H767.181V125.773H760.725V142.59ZM810.527 86.6481H816.983V69.9457H810.527V86.6481ZM316.315 255.274H320.35V244.52H316.315V255.274ZM316.315 244.52H320.35V239.83H316.315V244.52ZM330.725 255.274H334.876V244.52H330.725V255.274ZM330.725 244.52H334.876V239.83H330.725V244.52ZM347.672 255.274H351.707V244.52H347.672V255.274ZM347.672 244.52H351.707V239.83H347.672V244.52ZM362.082 255.274H366.117V244.52H362.082V255.274ZM362.082 244.52H366.117V239.83H362.082V244.52ZM284.152 255.274H288.302V244.52H284.152V255.274ZM284.152 244.52H288.302V239.83H284.152V244.52ZM298.677 255.274H302.712V244.52H298.677V255.274ZM298.677 244.52H302.712V239.83H298.677V244.52ZM316.315 281.929H320.35V266.599H316.315V281.929ZM330.725 281.929H334.876V266.599H330.725V281.929ZM347.672 281.929H351.707V266.599H347.672V281.929ZM362.082 281.929H366.117V266.599H362.082V281.929ZM284.152 281.929H288.302V266.599H284.152V281.929ZM298.677 281.929H302.712V266.599H298.677V281.929ZM316.315 308.699H320.35V293.255H316.315V308.699ZM330.725 308.699H334.876V293.255H330.725V308.699ZM347.672 308.699H351.707V293.255H347.672V308.699ZM362.082 308.699H366.117V293.255H362.082V308.699ZM284.152 308.699H288.302V293.255H284.152V308.699ZM298.677 308.699H302.712V293.255H298.677V308.699Z" fill="#F4F7FB"/>
</g>
<defs>
<filter id="filter0_f_104_12" x="0.5" y="0" width="1840" height="820" filterUnits="userSpaceOnUse" color-interpolation-filters="sRGB">
<feFlood flood-opacity="0" result="BackgroundImageFix"/>
<feBlend mode="normal" in="SourceGraphic" in2="BackgroundImageFix" result="shape"/>
<feGaussianBlur stdDeviation="5" result="effect1_foregroundBlur_104_12"/>
</filter>
</defs>
</svg>
