<svg width="1830" height="710" viewBox="0 0 1830 710" fill="none" xmlns="http://www.w3.org/2000/svg">
<g filter="url(#filter0_f_105_15)">
<path d="M1413.51 271.852L1384.79 258.687C1388.95 249.757 1391.37 239.912 1391.71 229.494L1423.32 230.525C1422.74 245.064 1419.4 259.03 1413.51 271.852ZM215.653 705H1468.3H1696.46H1740.98H1825L1825 650H1793.74L1794.96 425.598H1740.98L1720.45 274.485H1717.45V256.283H1706.61V274.485H1703.95V267.616H1696.46V274.485H1680.88V258.572H1676.62V247.582H1645.94V258.572H1641.67V274.485H1637.4V365.267H1610.18V134.82H1601.18V84.3343H1598.3V134.82H1591.49V64.7583H1588.61V134.82H1582.73V96.9271H1579.84V134.82H1527.01V298.411H1468.3V404.305H1413.4L1369.8 324.055C1377.18 319.933 1384.1 314.782 1390.45 308.943L1399.33 318.445C1397.48 320.162 1396.21 322.566 1396.21 325.314C1396.21 330.351 1400.36 334.472 1405.32 334.472C1410.4 334.472 1414.55 330.351 1414.55 325.314C1414.55 320.277 1410.4 316.155 1405.32 316.155C1403.48 316.155 1401.63 316.842 1400.13 317.758L1391.14 308.256C1391.94 307.455 1392.64 306.768 1393.44 306.081C1402.79 296.579 1410.4 285.818 1415.94 274.141L1425.86 278.721C1425.63 279.407 1425.51 280.209 1425.51 280.896C1425.51 285.933 1429.66 290.054 1434.74 290.054C1439.7 290.054 1443.85 285.933 1443.85 280.896C1443.85 275.859 1439.7 271.852 1434.74 271.852C1430.82 271.852 1427.47 274.256 1426.09 277.69L1416.28 273.226C1422.4 259.946 1425.86 245.522 1426.32 230.639L1437.04 230.983C1437.16 235.905 1441.2 239.798 1446.16 239.798C1451.23 239.798 1455.38 235.791 1455.38 230.754C1455.38 225.717 1451.23 221.595 1446.16 221.595C1441.43 221.595 1437.51 225.259 1437.04 229.952L1426.32 229.609C1426.43 228.579 1426.43 227.548 1426.43 226.403C1426.43 213.124 1424.13 200.188 1419.74 188.053L1428.62 184.733C1430.01 187.938 1433.24 190.228 1437.04 190.228C1442.12 190.228 1446.16 186.107 1446.16 181.07C1446.16 176.032 1442.12 172.026 1437.04 172.026C1431.97 172.026 1427.93 176.032 1427.93 181.07C1427.93 182.1 1428.05 182.901 1428.28 183.817L1419.4 187.137C1414.21 173.399 1406.48 160.807 1396.33 149.931L1403.36 143.291C1404.98 144.894 1407.17 145.81 1409.59 145.81C1414.67 145.81 1418.82 141.803 1418.82 136.766C1418.82 131.729 1414.67 127.608 1409.59 127.608C1404.52 127.608 1400.48 131.729 1400.48 136.766C1400.48 138.941 1401.29 141.002 1402.56 142.604L1395.64 149.13C1394.94 148.328 1394.14 147.642 1393.44 146.84C1382.83 136.308 1370.49 128.066 1357 122.456L1360.92 113.183C1361.72 113.412 1362.65 113.527 1363.69 113.527C1368.76 113.527 1372.8 109.52 1372.8 104.483C1372.8 99.4456 1368.76 95.3244 1363.69 95.3244C1358.61 95.3244 1354.46 99.4456 1354.46 104.483C1354.46 108.146 1356.76 111.352 1359.99 112.725L1356.07 122.113C1344.08 117.304 1331.16 114.442 1317.89 113.985L1318.35 101.163H1318.59C1323.66 101.163 1327.81 97.156 1327.81 92.1189C1327.81 87.0818 1323.66 82.9606 1318.59 82.9606C1313.51 82.9606 1309.47 87.0818 1309.47 92.1189C1309.47 96.6981 1312.93 100.476 1317.32 101.163L1316.85 113.985C1315.82 113.985 1314.78 113.985 1313.74 113.985C1300.94 113.985 1288.48 116.045 1276.71 120.052L1273.02 109.634C1276.37 108.261 1278.68 105.055 1278.68 101.163C1278.68 96.1257 1274.64 92.1189 1269.56 92.1189C1264.49 92.1189 1260.45 96.1257 1260.45 101.163C1260.45 106.314 1264.49 110.321 1269.56 110.321C1270.49 110.321 1271.29 110.207 1272.1 109.978L1275.79 120.395C1261.6 125.547 1248.46 133.446 1237.04 143.978L1230.35 136.88C1231.85 135.278 1232.77 133.103 1232.77 130.699C1232.77 125.661 1228.73 121.54 1223.66 121.54C1218.58 121.54 1214.54 125.661 1214.54 130.699C1214.54 135.736 1218.58 139.857 1223.66 139.857C1225.96 139.857 1228.04 138.941 1229.65 137.567L1236.34 144.665C1235.54 145.466 1234.84 146.153 1234.04 146.84C1224.69 156.342 1217.08 167.103 1211.54 178.78L1203.12 174.888C1203.47 173.972 1203.59 173.056 1203.59 172.026C1203.59 166.989 1199.55 162.867 1194.47 162.867C1189.4 162.867 1185.25 166.989 1185.25 172.026C1185.25 177.063 1189.4 181.07 1194.47 181.07C1198.16 181.07 1201.28 179.009 1202.78 175.803L1211.2 179.696C1205.09 192.975 1201.62 207.4 1201.16 222.282L1190.21 221.939C1190.09 217.016 1186.05 213.009 1181.09 213.009C1176.02 213.009 1171.98 217.131 1171.98 222.168C1171.98 227.205 1176.02 231.326 1181.09 231.326C1185.94 231.326 1189.86 227.663 1190.21 222.969L1201.16 223.312C1201.05 224.343 1201.05 225.373 1201.05 226.403C1201.05 239.798 1203.36 252.734 1207.74 264.869L1198.86 268.188C1197.47 264.983 1194.24 262.693 1190.44 262.693C1185.36 262.693 1181.32 266.7 1181.32 271.852C1181.32 276.889 1185.36 280.896 1190.44 280.896C1195.51 280.896 1199.55 276.889 1199.55 271.852C1199.55 270.822 1199.43 270.02 1199.2 269.104L1208.08 265.784C1213.27 279.522 1221 292.115 1231.15 302.99L1224.12 309.63C1222.5 308.027 1220.31 306.997 1217.89 306.997C1212.81 306.997 1208.66 311.118 1208.66 316.155C1208.66 321.193 1212.81 325.314 1217.89 325.314C1222.96 325.314 1227 321.193 1227 316.155C1227 313.98 1226.19 311.92 1224.92 310.317L1231.85 303.792C1232.54 304.479 1233.34 305.28 1234.04 306.081C1241.19 313.179 1249.15 319.246 1257.68 324.055L1214.08 404.305H1178.79V349.927H1164.37V246.666H1170.02V244.491H1046.37V246.666H1052.02V298.755H1039.91L1028.38 358.055V163.44H1023.3V93.0348H997.694V66.1321H984.084V43.6941H979.239V5H977.97V43.6941H973.241V66.1321H959.515V93.0348H934.254V163.44H928.949V291.428H889.616V404.305H759.276V186.107H769.772V182.672H759.276V176.49H746.011V166.416H637.356V176.49H624.091V182.672H613.71V186.107H624.091V321.879H606.328V296.465H496.75V327.603H472.873V385.53H434.233V196.066H421.314V183.245H411.048V149.13H408.972V183.245H404.127V140.544H401.936V183.245H396.053V196.066H392.824V385.53H312.774V274.485H316.465V266.929H291.781V246.552H280.016V266.929H269.173V246.552H258.446V266.929H237.569V246.552H173.552V266.929H158.673V274.485H167.093V316.27H143.447V410.716H111.035V385.53H74.9319V440.595H31.2161V650H5V705H94.6555H215.653ZM1216.39 404.305H1411.09L1368.07 325.085C1362.76 327.947 1357.34 330.465 1351.69 332.526L1354.92 341.684C1355.84 341.455 1356.88 341.226 1357.92 341.226C1362.99 341.226 1367.03 345.348 1367.03 350.385C1367.03 355.422 1362.99 359.543 1357.92 359.543C1352.84 359.543 1348.81 355.422 1348.81 350.385C1348.81 346.721 1350.88 343.631 1354 342.142L1350.77 332.755C1339 336.876 1326.54 338.937 1313.74 338.937C1312.7 338.937 1311.66 338.937 1310.63 338.937L1310.28 348.553C1314.89 348.897 1318.59 352.789 1318.59 357.597C1318.59 362.634 1314.55 366.755 1309.47 366.755C1304.4 366.755 1300.36 362.634 1300.36 357.597C1300.36 352.674 1304.28 348.553 1309.24 348.439L1309.59 338.937C1296.32 338.479 1283.4 335.617 1271.41 330.809L1267.49 340.196C1270.72 341.57 1273.02 344.775 1273.02 348.439C1273.02 353.476 1268.87 357.597 1263.8 357.597C1258.72 357.597 1254.68 353.476 1254.68 348.439C1254.68 343.402 1258.72 339.395 1263.8 339.395C1264.83 339.395 1265.76 339.509 1266.56 339.738L1270.49 330.465C1266.68 328.863 1262.99 327.031 1259.41 325.085L1216.39 404.305ZM1391.25 303.906C1390.56 304.593 1389.75 305.28 1389.06 305.967L1367.49 282.956C1374.41 276.317 1380.18 268.417 1384.45 259.603L1413.17 272.882C1407.75 284.216 1400.48 294.748 1391.25 303.906ZM1368.41 321.421L1353.3 293.603C1358.15 290.855 1362.65 287.421 1366.68 283.643L1388.37 306.654C1382.14 312.378 1375.45 317.3 1368.41 321.421ZM1236.23 303.906C1235.54 303.105 1234.84 302.418 1234.04 301.731L1257.11 280.094C1262.18 285.36 1267.95 289.94 1274.18 293.603L1259.07 321.421C1250.88 316.728 1243.15 310.775 1236.23 303.906ZM1210.97 264.754L1240.61 253.879C1244.3 263.38 1249.61 272.081 1256.41 279.408L1233.34 300.93C1223.54 290.283 1215.93 278.034 1210.97 264.754ZM1204.16 226.403C1204.16 225.488 1204.16 224.457 1204.16 223.427L1235.65 224.457C1235.65 225.144 1235.65 225.831 1235.65 226.403C1235.65 235.791 1237.27 244.606 1240.27 252.963L1210.62 263.838C1206.35 252.047 1204.16 239.454 1204.16 226.403ZM1213.97 180.955L1242.69 194.235C1238.54 203.164 1236.11 213.009 1235.77 223.427L1204.16 222.397C1204.74 207.858 1208.08 193.891 1213.97 180.955ZM1236.23 149.015C1236.92 148.328 1237.73 147.642 1238.42 146.955L1259.99 169.965C1253.07 176.605 1247.3 184.504 1243.03 193.319L1214.31 180.039C1219.73 168.706 1227 158.174 1236.23 149.015ZM1276.83 123.372L1287.33 153.137C1277.41 156.685 1268.41 162.18 1260.8 169.278L1239.11 146.268C1250.19 135.965 1262.99 128.294 1276.83 123.372ZM1313.74 116.961C1314.78 116.961 1315.82 116.961 1316.74 116.961L1315.82 148.557C1315.12 148.557 1314.43 148.443 1313.74 148.443C1304.86 148.443 1296.21 150.046 1288.25 152.793L1277.75 123.028C1289.17 119.022 1301.28 116.961 1313.74 116.961ZM1354.92 124.975L1342.92 154.167C1334.85 150.847 1325.97 148.901 1316.74 148.557L1317.78 117.075C1330.7 117.533 1343.27 120.166 1354.92 124.975ZM1391.25 149.015C1391.94 149.817 1392.64 150.504 1393.44 151.19L1370.38 172.827C1362.88 165.042 1353.88 158.746 1343.85 154.51L1355.84 125.318C1368.99 130.699 1380.99 138.712 1391.25 149.015ZM1416.51 188.167L1386.87 199.043C1383.18 189.541 1377.87 180.841 1371.07 173.514L1394.14 151.992C1403.94 162.638 1411.55 174.888 1416.51 188.167ZM1340.15 299.785C1344.08 298.411 1347.88 296.694 1351.57 294.633L1366.57 322.452C1361.49 325.199 1356.19 327.603 1350.65 329.55L1340.15 299.785ZM1311.66 304.364C1312.36 304.364 1313.05 304.364 1313.74 304.364C1322.62 304.364 1331.27 302.876 1339.23 300.128L1349.73 329.893C1338.31 333.9 1326.2 335.96 1313.74 335.96C1312.7 335.96 1311.66 335.96 1310.74 335.846L1311.66 304.364ZM1284.56 298.755C1292.63 302.074 1301.51 304.021 1310.74 304.364L1309.7 335.846C1296.78 335.388 1284.21 332.755 1272.56 327.947L1284.56 298.755ZM1283.64 298.411L1271.64 327.603C1267.95 326.115 1264.37 324.398 1260.91 322.452L1276.02 294.633C1278.44 296.007 1280.98 297.266 1283.64 298.411ZM1319.51 228.579C1319.74 228.121 1319.74 227.663 1319.85 227.205L1390.21 229.494C1389.87 239.569 1387.45 249.299 1383.41 258L1319.51 228.579ZM1319.97 232.356L1318.7 230.067C1318.82 229.838 1318.93 229.723 1319.05 229.494L1383.06 258.916C1378.91 267.616 1373.26 275.401 1366.45 281.812L1319.97 232.356ZM1321.93 235.905L1365.65 282.498C1361.72 286.276 1357.23 289.482 1352.61 292.344L1321.93 235.905ZM1316.28 232.013C1316.62 231.898 1316.97 231.784 1317.2 231.555L1350.77 293.374C1347.19 295.32 1343.5 297.037 1339.69 298.411L1316.28 232.013ZM1313.74 302.876C1313.05 302.876 1312.47 302.876 1311.78 302.876L1314.09 232.585C1314.43 232.585 1314.89 232.471 1315.36 232.356L1338.66 298.755C1330.93 301.388 1322.51 302.876 1313.74 302.876ZM1311.9 232.356C1312.24 232.471 1312.59 232.471 1313.05 232.585L1310.74 302.876C1301.74 302.532 1293.09 300.586 1285.13 297.381L1311.9 232.356ZM1310.28 231.555C1310.51 231.67 1310.74 231.784 1310.97 231.898L1284.21 296.923C1281.67 295.893 1279.14 294.633 1276.71 293.374L1310.28 231.555ZM1306.82 233.616L1274.98 292.344C1268.76 288.68 1263.22 284.216 1258.26 279.064L1306.82 233.616ZM1308.2 229.036C1308.32 229.38 1308.55 229.723 1308.78 230.067L1308.32 230.868L1257.57 278.377C1250.88 271.165 1245.57 262.693 1242.11 253.306L1308.2 229.036ZM1307.97 224.343C1307.86 224.801 1307.74 225.259 1307.63 225.717L1237.27 223.427C1237.61 213.353 1240.03 203.622 1244.07 194.922L1307.97 224.343ZM1309.13 222.397C1308.9 222.626 1308.67 223.084 1308.43 223.427L1244.42 194.006C1248.57 185.305 1254.22 177.521 1261.03 171.11L1309.13 222.397ZM1311.2 220.908C1310.74 221.023 1310.28 221.366 1309.93 221.595L1261.84 170.308C1269.22 163.44 1278.1 158.059 1287.79 154.51L1311.2 220.908ZM1313.39 220.336C1313.05 220.336 1312.59 220.451 1312.13 220.565L1288.83 154.167C1296.55 151.534 1304.97 150.046 1313.74 150.046C1314.43 150.046 1315.01 150.046 1315.7 150.046L1313.39 220.336ZM1315.59 220.565C1315.24 220.451 1314.89 220.451 1314.43 220.336L1316.74 150.046C1325.74 150.389 1334.39 152.335 1342.35 155.541L1315.59 220.565ZM1317.89 221.939C1317.43 221.595 1316.97 221.252 1316.51 221.023L1343.27 155.999C1353.19 160.12 1361.95 166.187 1369.22 173.857L1317.89 221.939ZM1318.59 222.626L1369.91 174.544C1376.6 181.756 1381.91 190.228 1385.37 199.615L1319.28 223.885C1319.16 223.427 1318.82 222.969 1318.59 222.626ZM1237.27 224.457L1307.63 226.747C1307.63 227.205 1307.74 227.663 1307.86 228.121L1241.77 252.39C1238.77 244.262 1237.15 235.562 1237.15 226.403C1237.15 225.831 1237.15 225.144 1237.27 224.457ZM1390.21 228.464L1319.85 226.174C1319.85 225.717 1319.74 225.259 1319.62 224.801L1385.72 200.531C1388.71 208.659 1390.33 217.36 1390.33 226.403C1390.33 227.09 1390.33 227.777 1390.21 228.464ZM1423.32 226.403C1423.32 227.434 1423.32 228.464 1423.32 229.494L1391.83 228.464C1391.83 227.777 1391.83 227.09 1391.83 226.403C1391.83 217.131 1390.21 208.316 1387.22 199.959L1416.86 189.083C1421.13 200.875 1423.32 213.467 1423.32 226.403ZM631.473 214.04V195.952H634.818V214.04H631.473ZM642.777 214.04V195.952H646.006V214.04H642.777ZM654.081 214.04V195.952H657.31V214.04H654.081ZM665.385 214.04V195.952H668.614V214.04H665.385ZM676.688 214.04V195.952H679.918V214.04H676.688ZM687.877 214.04V195.952H691.222V214.04H687.877ZM699.181 214.04V195.952H702.526V214.04H699.181ZM710.485 214.04V195.952H713.83V214.04H710.485ZM721.788 214.04V195.952H725.133V214.04H721.788ZM733.092 214.04V195.952H736.322V214.04H733.092ZM746.011 214.04V195.952H747.626V214.04H746.011ZM744.396 214.04V195.952H746.011V214.04H744.396ZM631.473 239.225V221.137H634.818V239.225H631.473ZM642.777 239.225V221.137H646.006V239.225H642.777ZM654.081 239.225V221.137H657.31V239.225H654.081ZM665.385 239.225V221.137H668.614V239.225H665.385ZM676.688 239.225V221.137H679.918V239.225H676.688ZM687.877 239.225V221.137H691.222V239.225H687.877ZM699.181 239.225V221.137H702.526V239.225H699.181ZM710.485 239.225V221.137H713.83V239.225H710.485ZM721.788 239.225V221.137H725.133V239.225H721.788ZM733.092 239.225V221.137H736.322V239.225H733.092ZM744.396 239.225V221.137H747.626V239.225H744.396ZM631.473 264.525V246.323H634.818V264.525H631.473ZM642.777 264.525V246.323H646.006V264.525H642.777ZM654.081 264.525V246.323H657.31V264.525H654.081ZM665.385 264.525V246.323H668.614V264.525H665.385ZM676.688 264.525V246.323H679.918V264.525H676.688ZM687.877 264.525V246.323H691.222V264.525H687.877ZM699.181 264.525V246.323H702.526V264.525H699.181ZM710.485 264.525V246.323H713.83V264.525H710.485ZM721.788 264.525V246.323H725.133V264.525H721.788ZM733.092 264.525V246.323H736.322V264.525H733.092ZM744.396 264.525V246.323H747.626V264.525H744.396ZM665.385 289.711V271.623H668.614V289.711H665.385ZM676.688 289.711V271.623H679.918V289.711H676.688ZM687.877 289.711V271.623H691.222V289.711H687.877ZM699.181 289.711V271.623H702.526V289.711H699.181ZM710.485 289.711V271.623H713.83V289.711H710.485ZM721.788 289.711V271.623H725.133V289.711H721.788ZM733.092 289.711V271.623H736.322V289.711H733.092ZM744.396 289.711V271.623H747.626V289.711H744.396ZM676.688 316.27V298.182H679.918V316.27H676.688ZM687.877 316.27V298.182H691.222V316.27H687.877ZM699.181 316.27V298.182H702.526V316.27H699.181ZM710.485 316.27V298.182H713.83V316.27H710.485ZM721.788 316.27V298.182H725.133V316.27H721.788ZM733.092 316.27V298.182H736.322V316.27H733.092ZM744.396 316.27V298.182H747.626V316.27H744.396ZM1060.44 286.276H1066.79V261.892H1060.44V286.276ZM1079.82 286.276H1086.28V261.892H1079.82V286.276ZM1098.16 286.276H1104.5V261.892H1098.16V286.276Z" fill="#EDF0F2"/>
</g>
<defs>
<filter id="filter0_f_105_15" x="0" y="0" width="1830" height="710" filterUnits="userSpaceOnUse" color-interpolation-filters="sRGB">
<feFlood flood-opacity="0" result="BackgroundImageFix"/>
<feBlend mode="normal" in="SourceGraphic" in2="BackgroundImageFix" result="shape"/>
<feGaussianBlur stdDeviation="2.5" result="effect1_foregroundBlur_105_15"/>
</filter>
</defs>
</svg>
