<svg width="225" height="187" viewBox="0 0 225 187" fill="none" xmlns="http://www.w3.org/2000/svg">
<path d="M105.862 4.2206C105.862 3.23124 106.851 3.23124 106.851 2.24188C104.872 2.24188 102.894 4.2206 100.915 5.20997C98.9362 6.19933 96.9575 8.17805 96.9575 8.17805C95.9681 9.16741 91.0213 9.16741 86.0745 13.1249C87.0638 13.1249 87.0638 13.1249 89.0426 13.1249C88.0532 13.1249 89.0426 13.1249 88.0532 13.1249C88.0532 14.1142 88.0532 13.1249 86.0745 14.1142C86.0745 15.1036 85.0851 15.1036 84.0957 16.0929C84.0957 17.0823 82.117 19.061 81.1277 20.0504L83.1064 19.061C82.117 20.0504 81.1277 21.0398 80.1383 24.0078C80.1383 25.9866 79.1489 27.9653 79.1489 29.944C80.1383 28.9546 80.1383 28.9546 81.1277 28.9546C79.1489 32.9121 79.1489 35.8802 80.1383 40.827C80.1383 43.7951 81.1277 45.7738 82.117 48.7419C82.117 49.7312 82.117 50.7206 83.1064 51.71C81.1277 50.7206 79.1489 48.7419 79.1489 54.6781C79.1489 57.6461 80.1383 58.6355 81.1277 61.6036C81.1277 64.5717 80.1383 72.4866 87.0638 71.4972C88.0532 73.4759 88.0532 75.4546 88.0532 77.4334C88.0532 79.4121 89.0426 80.4015 89.0426 81.3908C89.0426 82.3802 90.0319 82.3802 90.0319 84.3589C90.0319 91.2844 88.0532 89.3057 93 95.2419C95.9681 100.189 103.883 105.136 108.83 108.104L110.809 109.093C108.83 110.082 106.851 111.072 104.872 112.061C103.883 112.061 102.894 113.05 102.894 113.05C104.872 117.008 106.851 117.997 108.83 123.933C109.819 123.933 109.819 124.923 109.819 124.923C105.862 133.827 103.883 149.657 102.894 159.55C102.894 159.55 102.894 160.54 102.894 161.529C105.862 161.529 108.83 161.529 111.798 161.529C115.755 161.529 118.723 161.529 121.691 161.529V159.55C120.702 148.667 118.723 134.816 114.766 124.923C114.766 123.933 115.755 122.944 116.745 121.955C118.723 117.008 119.713 117.008 121.691 113.05L118.723 111.072C116.745 110.082 115.755 109.093 114.766 109.093L118.723 106.125C124.66 102.167 131.585 96.2312 135.543 91.2844C135.543 90.2951 135.543 85.3483 134.553 84.3589C134.553 82.3802 136.532 80.4015 136.532 78.4227C136.532 76.444 136.532 72.4866 137.521 71.4972C138.511 71.4972 139.5 71.4972 140.489 70.5078C144.447 68.5291 143.457 64.5717 144.447 60.6142C144.447 58.6355 145.436 56.6568 145.436 53.6887C145.436 48.7419 143.457 50.7206 141.479 51.71L143.457 43.7951C145.436 36.8695 147.415 26.9759 142.468 21.0398C141.479 19.061 140.489 19.061 140.489 18.0717C141.479 18.0717 142.468 18.0717 143.457 18.0717C142.468 16.0929 139.5 13.1249 138.511 12.1355C136.532 10.1568 133.564 9.16741 130.596 9.16741C130.596 8.17805 132.574 8.17805 133.564 8.17805C132.574 6.19933 129.606 6.19933 126.638 6.19933C127.628 5.20996 127.628 5.20997 128.617 5.20997C129.606 5.20997 130.596 5.20997 132.574 5.20997C131.585 4.2206 128.617 3.23124 127.628 4.2206C125.649 4.2206 123.67 4.2206 121.691 4.2206C122.681 3.23124 122.681 3.23124 123.67 2.24188C124.66 2.24188 124.66 2.24188 124.66 2.24188C121.691 2.24188 119.713 2.24188 116.745 3.23124C116.745 1.25252 117.734 1.25252 118.723 0.263157C116.745 -0.726205 110.809 1.25252 107.84 3.23124L105.862 4.2206V4.2206ZM89.0426 159.55V156.582C88.0532 151.636 88.0532 145.699 87.0638 140.753C87.0638 135.806 87.0638 130.859 86.0745 124.923C86.0745 121.955 85.0851 100.189 86.0745 96.2312C87.0638 95.2419 87.0638 94.2525 88.0532 93.2632C85.0851 94.2525 84.0957 98.21 78.1596 101.178C72.2234 105.136 65.2979 107.114 58.3723 109.093C56.3936 110.082 54.4149 111.072 52.4362 112.061C47.4894 113.05 43.5319 115.029 39.5745 117.008C37.5957 117.997 35.617 118.987 33.6383 119.976C32.6489 119.976 31.6596 120.965 30.6702 120.965C45.5106 139.763 65.2979 153.614 89.0426 159.55V159.55ZM193.915 120.965C192.926 120.965 191.936 119.976 191.936 119.976C185.011 117.008 179.074 114.04 173.138 112.061C165.223 108.104 146.426 103.157 141.479 98.21C140.489 97.2206 137.521 93.2632 137.521 93.2632C137.521 94.2525 138.511 95.2419 138.511 97.2206C138.511 99.1993 138.511 110.082 138.511 113.05C138.511 124.923 137.521 139.763 136.532 152.625C136.532 153.614 135.543 156.582 135.543 159.55C159.287 153.614 179.074 139.763 193.915 120.965ZM211.723 22.0291C219.638 37.8589 224.585 54.6781 224.585 73.4759C224.585 135.806 174.128 186.263 111.798 186.263C50.4574 186.263 0 135.806 0 73.4759C0 54.6781 3.95745 37.8589 11.8723 22.0291C6.92553 34.8908 3.95745 48.7419 3.95745 63.5823C3.95745 122.944 52.4362 171.423 111.798 171.423C172.149 171.423 220.628 122.944 220.628 63.5823C220.628 48.7419 217.66 34.8908 211.723 22.0291V22.0291Z" fill="#525A63"/>
</svg>
