<svg width="38" height="37" viewBox="0 0 38 37" fill="none" xmlns="http://www.w3.org/2000/svg">
<path d="M37.2596 18.4999C37.2596 28.7166 28.9182 37 18.6308 37C8.34116 37 0 28.7166 0 18.4999C0 8.28216 8.34116 0 18.6308 0C28.9182 0 37.2596 8.28216 37.2596 18.4999ZM7.59579 13.927C7.33761 13.927 7.15283 14.1814 7.23306 14.4253C9.62292 21.6926 13.8728 24.288 15.429 25.0205C15.7773 25.1847 16.1579 25.265 16.5435 25.265H19.2552C19.6244 25.265 19.9528 25.0036 20.0039 24.6402C20.1668 23.4779 20.1393 22.9666 20.4829 22.5524C20.6185 22.3885 20.8908 22.4442 21.0349 22.6002L23.8074 24.8922C24.0277 25.1299 24.3384 25.265 24.6638 25.265H28.6289C28.9788 25.265 29.1692 24.8589 28.9441 24.5927L25.8113 20.888C25.4913 20.5098 25.4937 19.9578 25.8148 19.5802C26.7436 18.4869 28.5188 16.214 28.8479 14.4612C28.9009 14.1814 28.6698 13.927 28.3832 13.927H24.8796C24.5525 13.927 24.2636 14.1316 24.1492 14.436C23.2226 16.9062 22.2856 19.2725 20.6955 19.6078C20.4829 19.6516 20.2854 19.4803 20.2854 19.2642L19.9615 14.4146C19.9615 14.0992 19.7719 13.8134 19.4827 13.6843C18.1033 13.0703 16.6835 13.1581 15.2349 13.758C15.0534 13.8328 15.0021 14.0672 15.1292 14.216C16.5606 15.8879 15.8215 18.2436 15.4206 19.2117C15.3403 19.4038 15.0737 19.4231 14.9639 19.2467C13.6806 17.7423 12.6152 16.0343 11.7415 14.147C11.68 14.0135 11.5484 13.927 11.4006 13.927C10.6892 13.927 8.58294 13.927 7.59579 13.927Z" fill="#525A63"/>
</svg>
