<svg width="38" height="37" viewBox="0 0 38 37" fill="none" xmlns="http://www.w3.org/2000/svg">
<path d="M37.8709 18.4999C37.8709 28.7166 29.5294 37 19.242 37C8.95238 37 0.611206 28.7166 0.611206 18.4999C0.611206 8.28336 8.95238 0 19.242 0C29.5294 0 37.8709 8.28336 37.8709 18.4999ZM24.0682 19.5583C23.6283 19.2971 23.0551 19.004 22.536 19.2153C22.1381 19.3774 21.8843 19.9955 21.6261 20.3121C21.4945 20.4733 21.3357 20.4994 21.1324 20.4187C19.638 19.8271 18.4933 18.8368 17.6688 17.4712C17.5288 17.2598 17.5539 17.0923 17.7214 16.8958C17.9721 16.6041 18.285 16.2738 18.3512 15.8816C18.4196 15.4895 18.2333 15.0291 18.0709 14.6799C17.8614 14.2347 17.6289 13.5965 17.1781 13.3445C16.7631 13.1113 16.2178 13.242 15.8491 13.5411C15.213 14.0557 14.9055 14.8619 14.9139 15.662C14.916 15.8896 14.9455 16.1155 14.9993 16.3343C15.1276 16.8622 15.3722 17.3549 15.6492 17.8236C15.8575 18.1769 16.0841 18.519 16.3271 18.8492C17.1276 19.9273 18.1205 20.8643 19.2727 21.5641C19.8476 21.9142 20.4679 22.2204 21.1091 22.4321C21.8285 22.6675 22.4698 22.9129 23.2467 22.7677C24.0608 22.6126 24.8623 22.1141 25.1846 21.335C25.2804 21.1049 25.3289 20.8477 25.2751 20.604C25.1647 20.101 24.4789 19.802 24.0682 19.5583ZM15.2909 25.2624L12.0369 26.1285L12.9037 22.915L12.6784 22.5489C11.8486 21.1948 11.4095 19.649 11.4095 18.0796C11.4095 13.3277 15.3035 9.46253 20.0888 9.46253C24.8739 9.46253 28.7661 13.3277 28.7661 18.0796C28.7661 22.8326 24.8739 26.6983 20.0888 26.6983C18.5366 26.6983 17.0052 26.2761 15.6584 25.4802L15.2909 25.2624ZM9.17566 28.9697L15.0014 27.4189C16.5673 28.2628 18.3162 28.7075 20.0888 28.7075C25.988 28.7075 30.7888 23.9398 30.7888 18.0796C30.7888 12.2217 25.988 7.4539 20.0888 7.4539C14.1874 7.4539 9.38642 12.2217 9.38642 18.0796C9.38642 19.8721 9.84973 21.6379 10.73 23.2141L9.17566 28.9697Z" fill="#525A63"/>
</svg>
