<?xml version="1.0" encoding="UTF-8"?>
<!DOCTYPE svg PUBLIC "-//W3C//DTD SVG 1.1//EN" "http://www.w3.org/Graphics/SVG/1.1/DTD/svg11.dtd">
<!-- Creator: CorelDRAW 2020 (64-Bit) -->
<svg xmlns="http://www.w3.org/2000/svg" xml:space="preserve" width="225px" height="210px" version="1.1" style="shape-rendering:geometricPrecision; text-rendering:geometricPrecision; image-rendering:optimizeQuality; fill-rule:evenodd; clip-rule:evenodd"
viewBox="0 0 2.39 2.23"
 xmlns:xlink="http://www.w3.org/1999/xlink"
 xmlns:xodm="http://www.corel.com/coreldraw/odm/2003">
 <defs>
  <style type="text/css">
   <![CDATA[
    .fil0 {fill:#525A63;fill-rule:nonzero}
   ]]>
  </style>
 </defs>
 <g id="Слой_x0020_1">
  <metadata id="CorelCorpID_0Corel-Layer"/>
  <path class="fil0" d="M2.26 0.49c0.08,0.17 0.13,0.35 0.13,0.55 0,0.66 -0.54,1.19 -1.2,1.19 -0.66,0 -1.19,-0.53 -1.19,-1.19 0,-0.2 0.05,-0.38 0.13,-0.55 -0.05,0.14 -0.09,0.29 -0.09,0.44 0,0.64 0.52,1.15 1.15,1.15 0.64,0 1.16,-0.51 1.16,-1.15 0,-0.15 -0.04,-0.3 -0.09,-0.44zm-1.07 -0.12l0.05 0.1 0.1 0.01 -0.07 0.07 0.02 0.11 -0.1 -0.05 -0.09 0.05 0.02 -0.11 -0.07 -0.07 0.1 -0.01 0.04 -0.1zm-0.32 0.06l0.03 0.07 0.09 0.02 -0.06 0.06 0.01 0.08 -0.07 -0.04 -0.08 0.04 0.02 -0.08 -0.06 -0.06 0.08 -0.02 0.04 -0.07zm0.65 0l0.04 0.07 0.08 0.02 -0.06 0.06 0.02 0.08 -0.08 -0.04 -0.07 0.04 0.01 -0.08 -0.06 -0.06 0.09 -0.02 0.03 -0.07zm-0.33 1.13l0.05 -0.09 0.1 -0.02 -0.07 -0.07 0.02 -0.1 -0.1 0.04 -0.09 -0.04 0.02 0.1 -0.07 0.07 0.1 0.02 0.04 0.09zm-0.32 -0.06l0.03 -0.07 0.09 -0.01 -0.06 -0.06 0.01 -0.08 -0.07 0.03 -0.08 -0.03 0.02 0.08 -0.06 0.06 0.08 0.01 0.04 0.07zm0.65 0l0.04 -0.07 0.08 -0.01 -0.06 -0.06 0.02 -0.08 -0.08 0.03 -0.07 -0.03 0.01 0.08 -0.06 0.06 0.09 0.01 0.03 0.07zm-0.33 -1.36c-0.45,0 -0.82,0.37 -0.82,0.83 0,0.45 0.37,0.83 0.82,0.83 0.46,0 0.83,-0.38 0.83,-0.83 0,-0.46 -0.37,-0.83 -0.83,-0.83zm0 1.67c-0.46,0 -0.84,-0.38 -0.84,-0.84 0,-0.47 0.38,-0.85 0.84,-0.85 0.47,0 0.85,0.38 0.85,0.85 0,0.46 -0.38,0.84 -0.85,0.84zm0 -1.6c-0.41,0 -0.75,0.34 -0.75,0.76 0,0.41 0.34,0.75 0.75,0.75 0.42,0 0.76,-0.34 0.76,-0.75 0,-0.42 -0.34,-0.76 -0.76,-0.76zm0 1.55c-0.43,0 -0.79,-0.36 -0.79,-0.79 0,-0.44 0.36,-0.8 0.79,-0.8 0.44,0 0.8,0.36 0.8,0.8 0,0.43 -0.36,0.79 -0.8,0.79zm0 -1.76l0.02 0.03 0.03 0 -0.02 0.03 0 0.03 -0.03 -0.02 -0.02 0.02 0 -0.03 -0.02 -0.03 0.03 0 0.01 -0.03zm-0.19 0.02l0.02 0.02 0.03 0 -0.02 0.03 0.01 0.03 -0.03 -0.01 -0.02 0.02 0 -0.03 -0.03 -0.02 0.03 -0.01 0.01 -0.03zm-0.19 0.05l0.02 0.03 0.04 -0.01 -0.02 0.03 0.02 0.02 -0.03 0 -0.02 0.03 -0.01 -0.03 -0.03 -0.02 0.03 -0.01 0 -0.04zm-0.17 0.1l0.03 0.01 0.03 -0.01 -0.01 0.03 0.02 0.02 -0.03 0.01 -0.01 0.03 -0.02 -0.03 -0.03 -0.01 0.02 -0.02 0 -0.03zm-0.15 0.12l0.03 0.01 0.03 -0.02 0 0.04 0.02 0.01 -0.03 0.02 -0.01 0.03 -0.01 -0.03 -0.04 0 0.02 -0.03 -0.01 -0.03zm-0.12 0.16l0.03 0 0.03 -0.02 0 0.03 0.03 0.01 -0.03 0.02 0 0.03 -0.02 -0.02 -0.03 0.01 0.01 -0.03 -0.02 -0.03zm-0.08 0.17l0.03 0 0.02 -0.03 0.01 0.03 0.03 0.01 -0.02 0.02 0 0.03 -0.03 -0.01 -0.03 0.01 0.01 -0.03 -0.02 -0.03zm-0.05 0.19l0.03 -0.01 0.01 -0.03 0.02 0.03 0.03 0 -0.02 0.03 0.01 0.03 -0.03 -0.01 -0.02 0.02 0 -0.04 -0.03 -0.02zm-0.01 0.21l0.03 -0.02 0 -0.03 0.03 0.02 0.03 -0.01 -0.01 0.03 0.01 0.03 -0.03 0 -0.02 0.02 -0.01 -0.03 -0.03 -0.01zm0.03 0.19l0.02 -0.02 0 -0.03 0.03 0.01 0.03 -0.01 -0.01 0.03 0.02 0.02 -0.03 0.01 -0.02 0.03 -0.01 -0.03 -0.03 -0.01zm0.07 0.18l0.02 -0.02 -0.02 -0.03 0.04 0.01 0.02 -0.02 0 0.03 0.03 0.02 -0.03 0.01 -0.01 0.03 -0.02 -0.03 -0.03 0zm0.1 0.17l0.01 -0.03 -0.02 -0.03 0.04 0.01 0.02 -0.03 0 0.03 0.03 0.02 -0.02 0.01 -0.01 0.04 -0.02 -0.03 -0.03 0.01zm0.13 0.14l0.01 -0.03 -0.02 -0.02 0.03 -0.01 0.02 -0.02 0.01 0.03 0.03 0 -0.02 0.02 0 0.04 -0.03 -0.02 -0.03 0.01zm0.16 0.11l0 -0.03 -0.02 -0.02 0.03 -0.01 0.01 -0.03 0.02 0.03 0.03 0 -0.02 0.02 0.01 0.04 -0.03 -0.02 -0.03 0.02zm0.18 0.08l0 -0.04 -0.03 -0.01 0.03 -0.01 0 -0.04 0.03 0.03 0.03 -0.01 -0.02 0.03 0.02 0.03 -0.03 -0.01 -0.03 0.03zm0.19 0.03l-0.01 -0.03 -0.03 0 0.03 -0.02 -0.01 -0.04 0.03 0.02 0.03 -0.01 -0.01 0.03 0.02 0.03 -0.03 0 -0.02 0.02zm0.21 0l-0.02 -0.02 -0.03 0 0.02 -0.03 -0.01 -0.03 0.03 0.01 0.02 -0.02 0 0.04 0.03 0.02 -0.03 0 -0.01 0.03zm0.19 -0.03l-0.03 -0.03 -0.03 0.01 0.02 -0.03 -0.02 -0.03 0.03 0.01 0.03 -0.03 0 0.04 0.03 0.01 -0.03 0.01 0 0.04zm0.18 -0.08l-0.03 -0.02 -0.03 0.02 0.01 -0.04 -0.02 -0.02 0.03 0 0.02 -0.03 0.01 0.03 0.03 0.01 -0.02 0.02 0 0.03zm0.16 -0.11l-0.03 -0.01 -0.03 0.02 0 -0.04 -0.02 -0.02 0.03 0 0.01 -0.03 0.02 0.02 0.03 0.01 -0.02 0.02 0.01 0.03zm0.13 -0.14l-0.03 -0.01 -0.02 0.03 -0.01 -0.04 -0.02 -0.01 0.03 -0.02 0 -0.03 0.02 0.03 0.04 -0.01 -0.02 0.03 0.01 0.03zm0.1 -0.17l-0.03 0 -0.02 0.03 -0.01 -0.03 -0.03 -0.01 0.03 -0.02 0 -0.03 0.02 0.02 0.03 -0.01 -0.01 0.03 0.02 0.02zm0.07 -0.18l-0.03 0.01 -0.01 0.03 -0.02 -0.03 -0.03 -0.01 0.02 -0.02 -0.01 -0.03 0.03 0.01 0.03 -0.01 0 0.03 0.02 0.02zm0.03 -0.19l-0.03 0.01 -0.01 0.03 -0.02 -0.02 -0.03 0 0.01 -0.03 -0.01 -0.03 0.03 0.01 0.03 -0.02 0 0.03 0.03 0.02zm-0.01 -0.21l-0.03 0.02 0 0.04 -0.02 -0.02 -0.03 0.01 0.01 -0.03 -0.02 -0.03 0.03 0 0.02 -0.03 0.01 0.03 0.03 0.01zm-0.05 -0.19l-0.02 0.03 0.01 0.03 -0.03 -0.01 -0.03 0.01 0 -0.03 -0.02 -0.02 0.03 -0.01 0.01 -0.03 0.02 0.03 0.03 0zm-0.08 -0.17l-0.02 0.03 0.01 0.03 -0.03 -0.01 -0.02 0.02 0 -0.03 -0.03 -0.02 0.03 -0.01 0 -0.03 0.03 0.02 0.03 0zm-0.12 -0.16l-0.01 0.03 0.02 0.03 -0.04 0 -0.02 0.03 0 -0.03 -0.04 -0.02 0.03 -0.01 0 -0.04 0.03 0.02 0.03 -0.01zm-0.15 -0.12l0 0.03 0.02 0.02 -0.03 0.01 -0.02 0.03 -0.01 -0.03 -0.03 -0.01 0.02 -0.02 -0.01 -0.03 0.03 0.01 0.03 -0.01zm-0.17 -0.1l0 0.04 0.03 0.01 -0.03 0.02 -0.01 0.03 -0.02 -0.03 -0.03 0 0.02 -0.02 -0.02 -0.03 0.03 0.01 0.03 -0.03zm-0.19 -0.05l0.01 0.03 0.03 0.01 -0.03 0.02 0 0.03 -0.02 -0.02 -0.03 0.01 0.01 -0.03 -0.02 -0.03 0.03 0 0.02 -0.02zm-0.2 -0.02l0.02 0.03 0.03 0 -0.02 0.03 0 0.03 -0.03 -0.02 -0.02 0.02 0 -0.03 -0.02 -0.03 0.03 0 0.01 -0.03zm-0.5 0.85l0 0.26 -0.08 0 0 -0.2 -0.05 0 0 -0.06 0.13 0zm0.15 0.26c-0.02,0 -0.04,0 -0.06,-0.01 -0.02,-0.02 -0.03,-0.03 -0.04,-0.05 -0.01,-0.02 -0.01,-0.05 -0.01,-0.07 0,-0.03 0,-0.06 0.01,-0.08 0.01,-0.02 0.02,-0.03 0.04,-0.04 0.02,-0.01 0.04,-0.02 0.06,-0.02 0.02,0 0.05,0.01 0.06,0.02 0.02,0.01 0.03,0.02 0.04,0.04 0.01,0.02 0.02,0.05 0.02,0.08 0,0.02 -0.01,0.05 -0.02,0.07 -0.01,0.02 -0.02,0.03 -0.04,0.05 -0.01,0.01 -0.04,0.01 -0.06,0.01zm0 -0.07c0.02,0 0.03,-0.02 0.03,-0.06 0,-0.05 -0.01,-0.07 -0.03,-0.07 -0.02,0 -0.03,0.02 -0.03,0.07 0,0.04 0.01,0.06 0.03,0.06zm0.36 0.07c-0.02,0 -0.04,0 -0.06,-0.01 -0.02,-0.02 -0.03,-0.03 -0.04,-0.05 -0.01,-0.02 -0.02,-0.05 -0.02,-0.07 0,-0.03 0.01,-0.06 0.02,-0.08 0.01,-0.02 0.02,-0.03 0.04,-0.04 0.02,-0.01 0.04,-0.02 0.06,-0.02 0.02,0 0.04,0.01 0.06,0.02 0.02,0.01 0.03,0.02 0.04,0.04 0.01,0.02 0.02,0.05 0.02,0.08 0,0.02 -0.01,0.05 -0.02,0.07 -0.01,0.02 -0.02,0.03 -0.04,0.05 -0.02,0.01 -0.04,0.01 -0.06,0.01zm0 -0.07c0.02,0 0.03,-0.02 0.03,-0.06 0,-0.05 -0.01,-0.07 -0.03,-0.07 -0.02,0 -0.03,0.02 -0.03,0.07 0,0.04 0.01,0.06 0.03,0.06zm0.26 0.07c-0.03,0 -0.05,0 -0.07,-0.01 -0.01,-0.02 -0.03,-0.03 -0.04,-0.05 -0.01,-0.02 -0.01,-0.05 -0.01,-0.07 0,-0.03 0,-0.06 0.01,-0.08 0.01,-0.02 0.03,-0.03 0.04,-0.04 0.02,-0.01 0.04,-0.02 0.07,-0.02 0.02,0 0.04,0.01 0.06,0.02 0.01,0.01 0.03,0.02 0.04,0.04 0.01,0.02 0.01,0.05 0.01,0.08 0,0.02 0,0.05 -0.01,0.07 -0.01,0.02 -0.03,0.03 -0.04,0.05 -0.02,0.01 -0.04,0.01 -0.06,0.01zm0 -0.07c0.02,0 0.02,-0.02 0.02,-0.06 0,-0.05 0,-0.07 -0.02,-0.07 -0.02,0 -0.03,0.02 -0.03,0.07 0,0.04 0.01,0.06 0.03,0.06zm0.25 0.07c-0.02,0 -0.04,0 -0.06,-0.01 -0.02,-0.02 -0.03,-0.03 -0.04,-0.05 -0.01,-0.02 -0.02,-0.05 -0.02,-0.07 0,-0.03 0.01,-0.06 0.02,-0.08 0.01,-0.02 0.02,-0.03 0.04,-0.04 0.02,-0.01 0.04,-0.02 0.06,-0.02 0.02,0 0.04,0.01 0.06,0.02 0.02,0.01 0.03,0.02 0.04,0.04 0.01,0.02 0.02,0.05 0.02,0.08 0,0.02 -0.01,0.05 -0.02,0.07 -0.01,0.02 -0.02,0.03 -0.04,0.05 -0.02,0.01 -0.04,0.01 -0.06,0.01zm0 -0.07c0.02,0 0.03,-0.02 0.03,-0.06 0,-0.05 -0.01,-0.07 -0.03,-0.07 -0.02,0 -0.03,0.02 -0.03,0.07 0,0.04 0.01,0.06 0.03,0.06z"/>
 </g>
</svg>
