<?xml version="1.0" encoding="UTF-8"?>
<!DOCTYPE svg PUBLIC "-//W3C//DTD SVG 1.1//EN" "http://www.w3.org/Graphics/SVG/1.1/DTD/svg11.dtd">
<!-- Creator: CorelDRAW 2020 (64-Bit) -->
<svg xmlns="http://www.w3.org/2000/svg" xml:space="preserve" width="11997px" height="2928px" version="1.1" style="shape-rendering:geometricPrecision; text-rendering:geometricPrecision; image-rendering:optimizeQuality; fill-rule:evenodd; clip-rule:evenodd"
viewBox="0 0 5980.92 1459.54"
 xmlns:xlink="http://www.w3.org/1999/xlink"
 xmlns:xodm="http://www.corel.com/coreldraw/odm/2003">
 <defs>
  <style type="text/css">
   <![CDATA[
    .fil0 {fill:#E31E24;fill-rule:nonzero}
   ]]>
  </style>
 </defs>
 <g id="__x0023_Layer_x0020_1">
  <metadata id="CorelCorpID_0Corel-Layer"/>
  <path class="fil0" d="M39.36 284.6c21.95,13.43 50.92,20.13 86.93,20.13 47.58,0 85.4,-10.06 113.47,-30.2 6.1,-4.26 9.15,-8.84 9.15,-13.73 0,-7.31 -3.66,-11.58 -10.98,-12.8 -48.2,-9.16 -72.29,-25.63 -72.29,-49.42 0,-36 25.92,-66.8 77.78,-92.42 43.31,-21.35 90.89,-32.03 142.76,-32.03 28.66,0 54.58,3.06 77.77,9.15 -32.93,0.61 -57.34,3.36 -73.2,8.24 -33.55,10.38 -58.27,31.42 -74.12,63.14 -12.21,24.4 -39.01,125.17 -118.05,285.5 -90.4,183.38 -193.5,248.78 -188.18,264.74 2.31,6.93 21.47,4.77 30.6,4.77 32.63,0 202.03,-0.48 202.03,-0.48 5.48,0 9.44,-3.09 11.88,-9.32l58.22 -142.87c75.16,-11.58 148.17,-36.88 219.08,-75.92 59.88,-32.91 110.6,-73.46 152.15,-121.64 51.93,-58.53 77.91,-116.45 77.91,-173.78 0,-70.71 -38.43,-121.63 -115.31,-152.73 -53.06,-21.94 -120.47,-32.93 -202.22,-32.93 -72.61,0 -140.92,7.64 -204.98,22.89 -58.57,13.41 -109.21,34.17 -151.91,62.22 -58.56,37.22 -87.85,80.22 -87.85,129.02 0,30.52 13.11,53.99 39.36,70.47zm543.55 -79.65l0 0c0,51.2 -24.18,103.74 -72.56,157.68 -48.37,53.93 -101.63,87.58 -159.8,100.98l151.18 -367.43c54.12,21.35 81.18,57.59 81.18,108.77z"/>
  <path class="fil0" d="M731.16 327.6c0,4.28 1.83,8.56 5.49,12.82 9.74,12.2 14.64,21.36 14.64,27.45 0,10.98 -1.84,21.36 -5.49,31.11l-107.98 286.41c-4.27,10.99 -6.41,16.19 -6.41,15.57 0,5.48 4.89,8.23 14.65,8.23l122.56 0c10.34,0 18.59,-7.95 24.7,-23.83l116.36 -298.24c11.58,-5.51 22.85,-8.27 33.83,-8.27 32.29,0 48.44,13.73 48.44,41.18 0,14.64 -6.72,28.98 -20.12,43.01 -9.15,6.1 -16.18,10.37 -21.05,12.81 -7.94,4.27 -11.9,9.15 -11.9,14.65 0,7.93 3.96,11.88 11.9,11.88 43.31,0 84.49,-10.66 123.53,-32.02 45.76,-25.61 68.65,-58.25 68.65,-97.92 0,-49.4 -37.52,-74.11 -112.56,-74.11 -50.66,0 -91.21,8.54 -121.72,25.61 -7.32,-10.36 -22.26,-15.55 -44.84,-15.55l-103.4 0c-19.53,0 -29.28,6.41 -29.28,19.21z"/>
  <path class="fil0" d="M1246.34 709.19c58.56,0 112.7,-14.78 162.42,-44.36 49.72,-29.58 87.7,-70.32 113.94,-122.17 18.29,-36 27.45,-71.39 27.45,-106.15 0,-42.7 -13.72,-75.97 -41.19,-99.75 -26.23,-21.96 -61.3,-32.95 -105.23,-32.95 -78.1,0 -146.27,27.62 -204.52,82.82 -58.26,55.21 -87.4,121.56 -87.4,199.03 0,82.35 44.85,123.53 134.53,123.53zm32.02 -204.97l0 0c17.08,-39.65 36.61,-72.13 58.57,-97.46 21.96,-25.31 40.57,-37.98 55.82,-37.98 10.36,0 15.55,10.68 15.55,32.04 0,34.76 -10.68,76.26 -32.02,124.45 -35.39,79.93 -69.87,119.88 -103.41,119.88 -14.04,0 -21.04,-10.68 -21.04,-32.04 0,-31.11 8.83,-67.4 26.53,-108.89z"/>
  <path class="fil0" d="M1632.5 375.19c0,7.32 -3.37,20.14 -10.08,38.43l-102.48 272.67c-3.05,6.13 -4.58,10.09 -4.58,11.92 0,7.3 4.89,10.98 14.64,10.98l119.86 0c12.2,0 21.35,-7.61 27.46,-22.9l115.39 -299.17c12.18,-5.51 26.21,-8.27 42.05,-8.27 17.67,0 26.5,6.71 26.5,20.1 0,5.49 -1.56,11.59 -4.68,18.29l-101.78 263.83c-4.05,9.06 -6.08,14.21 -6.08,15.42 0,8.48 4.57,12.7 13.72,12.7l121.71 0c11.59,0 20.14,-8.53 25.63,-25.64 53.05,-132.97 91.18,-231.78 114.38,-296.46 12.03,-5.49 27.08,-8.24 45.15,-8.24 15.63,0 23.47,8.24 23.47,24.72 0,18.29 -14.5,60.24 -43.46,125.81 -28.97,65.58 -43.47,109.05 -43.47,130.4 0,32.95 21.65,49.41 64.98,49.41 24.39,0 59.15,-7.31 104.31,-21.95 53.67,-17.07 80.53,-34.46 80.53,-52.16 0,-10.98 -5.18,-16.49 -15.55,-16.49 -3.08,0 -8.55,1.24 -16.49,3.68 -7.93,2.43 -14.32,3.66 -19.21,3.66 -15.26,0 -22.87,-8.54 -22.87,-25.62 0,-18.31 13.11,-55.67 39.35,-112.1 26.22,-56.42 39.34,-98.37 39.34,-125.83 0,-41.48 -35.08,-62.23 -105.23,-62.23 -50.64,0 -97.91,9.15 -141.84,27.45 -11.59,-18.3 -41.17,-27.45 -88.76,-27.45 -50.03,0 -94.57,7.63 -133.61,22.89 -10.38,-9.75 -27.15,-14.65 -50.32,-14.65l-95.18 0c-21.36,0 -32.03,6.72 -32.03,20.13 0,5.5 1.52,10.06 4.58,13.73 9.75,9.77 14.65,20.75 14.65,32.94z"/>
  <path class="fil0" d="M2397.5 709.19c58.55,0 112.68,-14.78 162.44,-44.36 49.7,-29.58 87.68,-70.32 113.91,-122.17 18.3,-36 27.46,-71.39 27.46,-106.15 0,-42.7 -13.73,-75.97 -41.17,-99.75 -26.25,-21.96 -61.34,-32.95 -105.25,-32.95 -78.1,0 -146.27,27.62 -204.52,82.82 -58.27,55.21 -87.4,121.56 -87.4,199.03 0,82.35 44.84,123.53 134.53,123.53zm32.03 -204.97l0 0c17.06,-39.65 36.59,-72.13 58.57,-97.46 21.94,-25.31 40.54,-37.98 55.82,-37.98 10.35,0 15.55,10.68 15.55,32.04 0,34.76 -10.67,76.26 -32.02,124.45 -35.39,79.93 -69.87,119.88 -103.42,119.88 -14.03,0 -21.04,-10.68 -21.04,-32.04 0,-31.11 8.82,-67.4 26.54,-108.89z"/>
  <path class="fil0" d="M2964.84 664.35c42.69,29.89 95.77,44.84 159.21,44.84 81.75,0 152.21,-16.18 211.39,-48.49 73.2,-39.65 109.81,-98.22 109.81,-175.7 0,-40.86 -24.86,-103.4 -74.58,-187.59 -49.71,-84.19 -74.57,-135.12 -74.57,-152.81 0,-18.31 6.22,-32.96 18.76,-43.94 12.49,-10.97 27.91,-16.47 46.19,-16.47 15.86,0 31.13,3.07 45.79,9.15 19.49,7.94 29.26,18.92 29.26,32.95 0,28.06 -18,52.47 -54,73.2 -4.88,2.45 -7.3,7.02 -7.3,13.73 0,9.15 17.38,13.72 52.16,13.72 42.08,0 77.76,-7.31 107.06,-21.96 37.19,-18.9 55.81,-47.58 55.81,-86.01 0,-42.7 -26.23,-74.43 -78.69,-95.17 -36.61,-14.03 -79.95,-21.04 -129.94,-21.04 -64.68,0 -120.79,10.67 -168.4,32.02 -62.84,28.68 -94.24,72.29 -94.24,130.86 0,28.68 25.94,82.51 77.78,161.51 51.84,79.01 77.8,134.67 77.8,166.99 0,35.4 -10.08,64.99 -30.2,88.79 -21.37,25.61 -49.74,38.42 -85.12,38.42 -62.22,0 -93.32,-30.8 -93.32,-92.42 0,-32.33 9.13,-62.68 27.43,-91.06 18.31,-28.37 42.72,-47.42 73.23,-57.18 6.07,-2.44 9.15,-7.33 9.15,-14.64 0,-8.55 -5.51,-12.82 -16.49,-12.82 -177.51,2.45 -266.28,58.57 -266.28,168.38 0,61.01 24.07,108.58 72.3,142.74z"/>
  <path class="fil0" d="M3461.69 578.35c0,45.15 18.62,79 55.83,101.57 31.74,19.53 73.23,29.27 124.46,29.27 84.19,0 144.59,-17.97 181.19,-54 8.52,-8.53 12.81,-15.55 12.81,-21.03 0,-7.92 -3.07,-11.89 -9.15,-11.89 -2.46,0 -7.33,1.23 -14.66,3.66 -28.66,9.15 -61,13.71 -96.98,13.71 -61.63,0 -92.42,-20.11 -92.42,-60.38 0,-6.09 0.61,-12.21 1.82,-18.3 79.91,0 140.02,-7.33 180.29,-21.98 64.64,-23.78 96.98,-68.62 96.98,-134.51 0,-34.16 -16.79,-60.99 -50.34,-80.53 -28.05,-15.85 -60.69,-23.79 -97.92,-23.79 -75.04,0 -143.35,31.43 -204.96,94.26 -57.96,59.18 -86.95,120.49 -86.95,183.94zm213.23 -145.51l0 0c23.79,-35.99 45.13,-53.99 64.07,-53.99 11.57,0 17.38,7.32 17.38,21.97 0,71.37 -39.35,108.29 -118.04,110.72 2.43,-20.13 14.62,-46.35 36.59,-78.7z"/>
  <path class="fil0" d="M3984.2 367.87c0,10.98 -1.82,21.36 -5.47,31.11l-107.98 286.41c-4.26,10.99 -6.41,16.19 -6.41,15.57 0,5.48 4.9,8.23 14.64,8.23l122.57 0c10.35,0 18.58,-7.95 24.68,-23.83l116.4 -298.24c11.55,-5.51 22.83,-8.27 33.81,-8.27 32.3,0 48.43,13.73 48.43,41.18 0,14.64 -6.71,28.98 -20.12,43.01 -9.15,6.1 -16.17,10.37 -21.05,12.81 -7.92,4.27 -11.89,9.15 -11.89,14.65 0,7.93 3.97,11.88 11.89,11.88 43.31,0 84.49,-10.66 123.54,-32.02 45.76,-25.61 68.64,-58.25 68.64,-97.92 0,-49.4 -37.52,-74.11 -112.56,-74.11 -50.65,0 -91.23,8.54 -121.72,25.61 -7.34,-10.36 -22.28,-15.55 -44.83,-15.55l-103.41 0c-19.54,0 -29.28,6.41 -29.28,19.21 0,4.28 1.82,8.56 5.51,12.82 9.74,12.2 14.61,21.36 14.61,27.45z"/>
  <path class="fil0" d="M4407.86 390.75c0,9.76 -3.36,38.43 -10.07,86.01 -7.93,56.74 -11.9,99.16 -11.9,127.2 0,57.36 7.32,91.51 21.97,102.48 2.44,1.83 7.91,2.75 16.46,2.75 57.96,0 119.57,-27.7 184.86,-83.06 53.08,-45.05 97.91,-97.41 134.52,-157.05 34.15,-54.17 51.24,-91.59 51.24,-112.3 0,-32.26 -29.28,-48.39 -87.85,-48.39l-77.79 0.91c-10.98,0 -16.46,6.4 -16.46,19.16 0,4.26 2.28,9.12 6.87,14.6 4.58,5.47 7.78,9.74 9.59,12.77 4.26,9.13 6.42,17.94 6.42,26.45 0,29.2 -9.46,65.08 -28.37,107.64 -20.77,48.04 -42.71,84.23 -65.88,108.55 -1.24,-11.57 -1.85,-24.7 -1.85,-39.34 0,-25.01 4.6,-61.91 13.75,-110.74 9.14,-45.14 13.71,-77.47 13.71,-96.99 0,-28.67 -12.51,-43.01 -37.51,-43.01l-125.38 0c-17.07,0 -25.61,7.32 -25.61,21.96 0,4.28 4.86,12.21 14.63,23.8 9.75,11.59 14.65,23.79 14.65,36.6z"/>
  <path class="fil0" d="M4834.28 346.82c7.9,5.5 11.9,13.43 11.9,23.8 0,6.71 -1.37,14.5 -4.13,23.32 -2.76,8.86 -4.43,13.59 -5.05,14.2l-87.81 205.89c-5.51,12.8 -8.26,24.7 -8.26,35.68 0,39.67 21.64,59.48 64.98,59.48 47.58,0 105.53,-18.61 173.88,-55.81 6.69,-4.26 10.03,-10.06 10.03,-17.38 0,-11.58 -6.09,-17.41 -18.29,-17.41 -4.28,0 -10.97,1.4 -20.12,4.13 -9.15,2.76 -16.19,4.11 -21.05,4.11 -10.98,0 -16.46,-3.95 -16.46,-11.9 0,-2.42 0.89,-5.77 2.74,-10.05l88.76 -239.76c3.05,-8.54 4.58,-16.16 4.58,-22.87 0,-22.57 -16.19,-33.86 -48.52,-33.86l-110.72 0c-18.91,0 -28.37,6.41 -28.37,19.21 0,7.32 3.97,13.73 11.91,19.22z"/>
  <path class="fil0" d="M4891.92 261.73c16.49,9.14 34.18,13.72 53.08,13.72l3.64 0 2.77 0c17.69,0 33.86,-3.67 48.49,-10.99 17.68,-9.74 26.55,-22.56 26.55,-38.43l0 -2.74c0,-17.69 -10.07,-31.71 -30.2,-42.09 -16.46,-8.54 -34.79,-12.82 -54.9,-12.82l-3.69 0 -1.82 0c-17.69,0 -33.84,3.66 -48.48,10.98 -17.7,9.15 -26.56,21.67 -26.56,37.51l0 2.76c0.61,17.08 10.97,31.11 31.12,42.1z"/>
  <path class="fil0" d="M5062.14 673.47c35.36,23.83 80.82,35.72 136.33,35.72 39.03,0 77.48,-6.99 115.29,-21.05 43.31,-15.84 75.35,-37.51 96.1,-64.97 3.05,-4.24 4.57,-7.92 4.57,-10.97 0,-7.93 -5.18,-11.89 -15.55,-11.89 1.83,0 -19.21,6.39 -63.15,19.22 -26.22,7.3 -51.55,10.97 -75.96,10.97 -66.48,0 -99.74,-28.67 -99.74,-86.02 0,-18.31 3.67,-37.82 11,-58.56 8.52,-24.4 21.34,-47.89 38.41,-70.46 22,-28.67 43.01,-43.02 63.15,-43.02 35.39,0 53.08,15.56 53.08,46.68 0,16.46 -10.68,42.7 -32.03,78.69 0,8.55 4.57,12.81 13.72,12.81 34.15,0 64.35,-8.53 90.61,-25.62 29.28,-20.14 43.91,-46.36 43.91,-78.7 0,-37.2 -19.54,-65.26 -58.58,-84.18 -30.51,-14.64 -66.79,-21.97 -108.86,-21.97 -69.56,0 -132.1,24.41 -187.6,73.21 -57.36,50.64 -86.05,110.42 -86.05,179.37 0,53.06 20.46,93.34 61.35,120.74z"/>
  <path class="fil0" d="M5978.68 604.62c-4.6,-9.64 -20.27,-14.66 -46.99,-15.03 -26.54,-0.36 -53.11,4.62 -79.66,15.03l-60.09 17.69c-14.23,3.62 0,0 -14.23,3.62 -29.17,7.42 -61,13.71 -96.99,13.71 -61.62,0 -92.41,-20.11 -92.41,-60.38 0,-6.09 0.62,-12.21 1.82,-18.3 79.92,0 140.01,-7.33 180.3,-21.98 64.63,-23.78 96.97,-68.62 96.97,-134.51 0,-34.16 -16.79,-60.99 -50.34,-80.53 -28.05,-15.85 -60.68,-23.79 -97.9,-23.79 -75.03,0 -143.35,31.43 -204.98,94.26 -57.96,59.18 -86.93,120.49 -86.93,183.94 0,45.15 18.61,79 55.81,101.57 31.72,19.53 73.2,29.27 124.46,29.27 56.38,0 103.15,-8.6 138.19,-24.74 50.04,-19.27 74.26,-32.06 80.37,-23.15 7.82,8.19 -2.3,20.77 -30.38,37.82 -28.27,17.06 -67.41,35.55 -117.45,55.54 -79.82,32.67 -165.78,58.59 -258.03,77.86 -92.43,19.27 -188.67,33.88 -288.75,43.88 -100.08,10.03 -201.89,16.15 -305.02,18.36 -103.28,2.22 -205.86,2.22 -307.47,0 -98.54,-2.21 -190.43,-4.42 -275.78,-6.65 -85.2,-2.27 -170.17,-4.48 -254.6,-6.7 -84.38,-2.21 -171.68,-4.25 -261.63,-6.1 -89.96,-1.86 -188.89,-3.17 -296.98,-3.89 -262.82,-0.73 -497.13,-0.18 -702.81,1.66 -205.69,1.87 -395.82,5.95 -570.24,12.23 -174.51,6.28 -339.14,14.83 -494.03,25.56 -154.88,10.77 -312.11,23.92 -471.71,39.48 -78.21,7.43 -160.73,17.96 -247.58,31.68 -86.83,13.74 -173.32,30.76 -259.29,51.15 -86.09,20.41 -168.64,43.76 -247.62,70.04 -79.02,26.32 -149.82,55.95 -212.39,88.92 -62.56,32.99 -113.81,69.31 -153.72,108.98 -39.86,39.63 -62.98,82.42 -69.23,128.39 54.75,-11.86 121.23,-21.68 199.48,-29.46 78.19,-7.77 163.9,-13.34 256.97,-16.69 93.1,-3.35 191.27,-3.88 294.54,-1.67 103.27,2.22 207.32,7.05 312.12,14.48 97.01,7.37 185.77,16.46 266.37,27.23 80.54,10.73 152.91,22.8 217.11,36.14 3.09,-31.9 14.83,-61.93 35.18,-90.06 20.28,-28.19 51.61,-53.74 93.86,-76.73 65.71,-34.11 133.78,-64.45 204.16,-91.15 70.42,-26.68 150.98,-50.22 241.74,-70.61 90.71,-20.36 193.99,-37.78 309.77,-52.26 115.75,-14.42 251.15,-26.1 406.03,-35 233.01,-13.34 465.42,-22.22 696.89,-26.69 231.66,-4.44 463.93,-10.73 697.1,-18.86 132.92,-4.49 267.57,-9.82 403.57,-16.15 136.16,-6.29 269.09,-17.25 398.94,-32.8 129.87,-15.55 253.43,-37.6 370.89,-66.14 117.25,-28.55 223.64,-66.86 319.15,-115.08l176.07 -87.81c35.92,-18.54 59,-33.51 69.15,-45.06 10.12,-11.43 12.99,-21.66 8.22,-30.52zm-338.23 -171.78l0 0c23.8,-35.99 45.17,-53.99 64.06,-53.99 11.59,0 17.39,7.32 17.39,21.97 0,71.37 -39.34,108.29 -118.03,110.72 2.42,-20.13 14.62,-46.35 36.58,-78.7z"/>
 </g>
</svg>
