<?xml version="1.0" encoding="UTF-8"?>
<!DOCTYPE svg PUBLIC "-//W3C//DTD SVG 1.1//EN" "http://www.w3.org/Graphics/SVG/1.1/DTD/svg11.dtd">
<!-- Creator: CorelDRAW 2020 (64-Bit) -->
<svg xmlns="http://www.w3.org/2000/svg" xml:space="preserve" width="64px" height="64px" version="1.1" style="shape-rendering:geometricPrecision; text-rendering:geometricPrecision; image-rendering:optimizeQuality; fill-rule:evenodd; clip-rule:evenodd"
viewBox="0 0 1.8 1.8"
 xmlns:xlink="http://www.w3.org/1999/xlink"
 xmlns:xodm="http://www.corel.com/coreldraw/odm/2003">
 <defs>
  <style type="text/css">
   <![CDATA[
    .fil0 {fill:#E00013;fill-rule:nonzero}
    .fil1 {fill:white;fill-rule:nonzero}
   ]]>
  </style>
 </defs>
 <g id="Слой_x0020_1">
  <metadata id="CorelCorpID_0Corel-Layer"/>
  <g id="_2643407921248">
   <circle class="fil0" cx="0.9" cy="0.9" r="0.9"/>
   <path class="fil1" d="M0.45 0.8c0.03,0.02 0.07,0.03 0.12,0.03 0.07,0 0.12,-0.01 0.16,-0.04 0.01,-0.01 0.02,-0.01 0.02,-0.02 0,-0.01 -0.01,-0.02 -0.02,-0.02 -0.07,-0.01 -0.1,-0.03 -0.1,-0.07 0,-0.05 0.03,-0.09 0.11,-0.13 0.06,-0.03 0.13,-0.04 0.2,-0.04 0.04,0 0.08,0 0.11,0.01 -0.05,0 -0.08,0 -0.1,0.01 -0.05,0.01 -0.09,0.04 -0.11,0.09 -0.02,0.03 -0.05,0.18 -0.17,0.4 -0.12,0.26 -0.27,0.35 -0.26,0.38 0,0.01 0.03,0 0.04,0 0.05,0 0.29,0 0.29,0 0.01,0 0.01,0 0.01,-0.01l0.09 -0.2c0.1,-0.02 0.21,-0.05 0.31,-0.11 0.08,-0.05 0.15,-0.1 0.21,-0.17 0.08,-0.08 0.11,-0.17 0.11,-0.25 0,-0.1 -0.05,-0.17 -0.16,-0.21 -0.08,-0.03 -0.17,-0.05 -0.29,-0.05 -0.1,0 -0.2,0.01 -0.29,0.03 -0.08,0.02 -0.15,0.05 -0.21,0.09 -0.08,0.05 -0.13,0.11 -0.13,0.18 0,0.05 0.02,0.08 0.06,0.1zm0.77 -0.11l0 0c0,0.07 -0.04,0.15 -0.1,0.22 -0.07,0.08 -0.15,0.13 -0.23,0.15l0.21 -0.52c0.08,0.03 0.12,0.08 0.12,0.15z"/>
  </g>
 </g>
</svg>
