<?xml version="1.0" encoding="UTF-8"?>
<!DOCTYPE svg PUBLIC "-//W3C//DTD SVG 1.1//EN" "http://www.w3.org/Graphics/SVG/1.1/DTD/svg11.dtd">
<!-- Creator: CorelDRAW 2020 (64-Bit) -->
<svg xmlns="http://www.w3.org/2000/svg" xml:space="preserve" width="1920px" height="800px" version="1.1" style="shape-rendering:geometricPrecision; text-rendering:geometricPrecision; image-rendering:optimizeQuality; fill-rule:evenodd; clip-rule:evenodd"
viewBox="0 0 167.84 69.93"
 xmlns:xlink="http://www.w3.org/1999/xlink"
 xmlns:xodm="http://www.corel.com/coreldraw/odm/2003">
 <defs>
  <style type="text/css">
   <![CDATA[
    .fil0 {fill:#F4F7FB;fill-rule:nonzero}
   ]]>
  </style>
 </defs>
 <g id="Слой_x0020_1">
  <metadata id="CorelCorpID_0Corel-Layer"/>
  <path class="fil0" d="M64.69 52.45l0 -28.14 1.13 0 0 -12.02 1.31 0 0 -7.95 2.55 0 0 -4.34 0.35 0 0 4.34 0.79 0 0 -3.47 0.36 0 0 3.47 4.02 0 0 4.73 0.73 0 0 3.22 2.05 0 0 12.02 0.79 0 0 28.14 43 0 -1.59 -43.56 14.65 2.99 0 40.57 33.01 0 0 0.41 0 10.52 0 6.55 -167.84 0 0 -17.48 24.34 0 0 -33.66 -0.34 0 0 -0.69 0.74 0 0 -0.88 0.85 0 0 -0.33 0 -1.02 0 -0.87 1.02 0 0 -1.57 0.13 0c0.12,0 0.22,-0.1 0.22,-0.22 0,-0.12 -0.1,-0.22 -0.22,-0.22 -0.13,0 -0.22,0.1 -0.22,0.22 0,0.12 0.09,0.22 0.22,0.22l0.12 0 0 1.57 0.55 0 0.34 0.87 2.24 0 0 1.35 5.85 0 0 0.88 0.74 0 0 0.69 -0.34 0 0 33.66 9.61 0 0 -34.8 -0.2 0 0 -0.31 1.41 0 0 -1.85 -0.18 0 0 -0.3 1.29 0 0 -1.07 -0.2 0 0 -0.23 0.64 0 0 -1.01 0.61 0 0 -2 0.21 0 0 2 0.24 0 0 -3.6 0.21 0 0 3.6 0.61 0 0 1.01 0.56 0 0 0.23 -0.12 0 0 1.07 1.3 0 0 0.3 -0.19 0 0 1.85 1.41 0 0 0.31 -0.2 0 0 34.8 11.44 0zm3.17 -45.75l0.55 0 0 -1.46 -0.55 0 0 1.46zm1.37 0l0.56 0 0 -1.46 -0.56 0 0 1.46zm1.38 0l0.56 0 0 -1.46 -0.56 0 0 1.46zm1.38 0l0.56 0 0 -1.46 -0.56 0 0 1.46zm-4.13 2.45l0.55 0 0 -1.47 -0.55 0 0 1.47zm1.37 0l0.56 0 0 -1.47 -0.56 0 0 1.47zm1.38 0l0.56 0 0 -1.47 -0.56 0 0 1.47zm1.38 0l0.56 0 0 -1.47 -0.56 0 0 1.47zm-4.13 2.44l0.55 0 0 -1.47 -0.55 0 0 1.47zm1.37 0l0.56 0 0 -1.47 -0.56 0 0 1.47zm4.32 -4.89l0.56 0 0 -1.46 -0.56 0 0 1.46zm-42.87 14.74l0.35 0 0 -0.94 -0.35 0 0 0.94zm0 -0.94l0.35 0 0 -0.41 -0.35 0 0 0.41zm1.25 0.94l0.36 0 0 -0.94 -0.36 0 0 0.94zm0 -0.94l0.36 0 0 -0.41 -0.36 0 0 0.41zm1.47 0.94l0.35 0 0 -0.94 -0.35 0 0 0.94zm0 -0.94l0.35 0 0 -0.41 -0.35 0 0 0.41zm1.25 0.94l0.35 0 0 -0.94 -0.35 0 0 0.94zm0 -0.94l0.35 0 0 -0.41 -0.35 0 0 0.41zm-6.76 0.94l0.36 0 0 -0.94 -0.36 0 0 0.94zm0 -0.94l0.36 0 0 -0.41 -0.36 0 0 0.41zm1.26 0.94l0.35 0 0 -0.94 -0.35 0 0 0.94zm0 -0.94l0.35 0 0 -0.41 -0.35 0 0 0.41zm1.53 3.27l0.35 0 0 -1.34 -0.35 0 0 1.34zm1.25 0l0.36 0 0 -1.34 -0.36 0 0 1.34zm1.47 0l0.35 0 0 -1.34 -0.35 0 0 1.34zm1.25 0l0.35 0 0 -1.34 -0.35 0 0 1.34zm-6.76 0l0.36 0 0 -1.34 -0.36 0 0 1.34zm1.26 0l0.35 0 0 -1.34 -0.35 0 0 1.34zm1.53 2.34l0.35 0 0 -1.35 -0.35 0 0 1.35zm1.25 0l0.36 0 0 -1.35 -0.36 0 0 1.35zm1.47 0l0.35 0 0 -1.35 -0.35 0 0 1.35zm1.25 0l0.35 0 0 -1.35 -0.35 0 0 1.35zm-6.76 0l0.36 0 0 -1.35 -0.36 0 0 1.35zm1.26 0l0.35 0 0 -1.35 -0.35 0 0 1.35z"/>
 </g>
</svg>
