<?xml version="1.0" encoding="UTF-8"?>
<!DOCTYPE svg PUBLIC "-//W3C//DTD SVG 1.1//EN" "http://www.w3.org/Graphics/SVG/1.1/DTD/svg11.dtd">
<!-- Creator: CorelDRAW 2020 (64-Bit) -->
<svg xmlns="http://www.w3.org/2000/svg" xml:space="preserve" width="1920px" height="550px" version="1.1" style="shape-rendering:geometricPrecision; text-rendering:geometricPrecision; image-rendering:optimizeQuality; fill-rule:evenodd; clip-rule:evenodd"
viewBox="0 0 167.84 48.08"
 xmlns:xlink="http://www.w3.org/1999/xlink"
 xmlns:xodm="http://www.corel.com/coreldraw/odm/2003">
 <defs>
  <style type="text/css">
   <![CDATA[
    .fil0 {fill:#DADCDF;fill-rule:nonzero}
   ]]>
  </style>
 </defs>
 <g id="Слой_x0020_1">
  <metadata id="CorelCorpID_0Corel-Layer"/>
  <path class="fil0" d="M152.96 14.94l0.46 0 0 -1.07 -0.46 0 0 1.07zm-152.96 12.16l4.07 0 0 -4.88 4.5 0 0 4.88 3.42 0 0 -3.7 4.75 0 0 -7.19 5.47 0 0 9.1 6.49 0 0 -12.27 1.98 0 0 -0.7 2.43 0 0 0.7 1.09 0 0 3.44 5.71 0 0 0.51 -0.81 0 0 5.69 2.28 0 0 -17.11 -0.29 0 0 -0.27 3.64 0 0 0.27 -0.27 0 0 0.79 4.82 0 0 20.74 3.97 0 1.47 -5.49 3.48 0 0 -5.29 3.56 0 0 -2.27 -0.43 0 0 -0.23 0.73 0 0 -3.68 0.14 0 0 3.68 0.56 0 0 -0.72 0.18 0 0 0.72 1.75 0 0 0.23 -0.39 0 0 2.27 0.66 0 0 6.93 5.4 0 0 -8.12 5.27 0 0 11.97 1.42 0 0 -23.55 1.02 0 0 0.35 1.86 -0.46 0 -0.65 1.01 0 0 0.4 1.87 -0.46 0 -0.73 1.01 0 0 0.48 1.86 -0.46 0 -0.67 1.02 0 0 0.42 1.86 -0.46 0 -0.65 1.01 0 0 25.25 1.37 0 0 -8.11 8.42 0 0 9.3 2.09 0 0 -1.04 -0.38 0 0 -0.28 0.38 0 0 -3.53 -0.38 0 0 -0.28 0.38 0 0 -3.53 -0.38 0 0 -0.28 0.38 0 0 -3.53 -0.38 0 0 -0.28 0.38 0 0 -3.53 -0.38 0 0 -0.28 0.38 0 0 -3.53 -0.38 0 0 -0.29 0.38 0 0 -3.65 -0.65 0 0 -0.28 0.65 0 0 0 -0.98 0 0 -0.77 1.52 0 0 -0.86 -0.2 0 0 -0.25 3.34 0 0 0.25 -0.2 0 0 0.86 6.13 0 0 0.77 -0.97 0 0 0 0.64 0 0 0.28 -0.64 0 0 3.65 0.37 0 0 0.29 -0.37 0 0 3.53 0.37 0 0 0.28 -0.37 0 0 3.53 0.37 0 0 0.28 -0.37 0 0 3.53 0.37 0 0 0.28 -0.37 0 0 3.53 0.37 0 0 0.28 -0.37 0 0 3.53 0.37 0 0 0.13 2.08 0 0 -12.38 -0.32 0 0 -0.66 2.14 0 0 -1.78 1.03 0 0 1.78 0.93 0 0 -1.78 0.93 0 0 1.78 1.81 0 0 -1.78 5.55 0 0 1.78 1.3 0 0 0.66 -0.74 0 0 8.93 4.56 2.03 0 -9.2 4.12 0 0 -9.36 -0.29 0 0 -0.71 0.62 0 0 -0.9 4.92 0 0 -1.38 1.88 0 0.28 -0.89 0.46 0 0 -1.6 0.1 0c-0.1,-0.01 -0.18,-0.11 -0.18,-0.23 0,-0.12 0.08,-0.22 0.19,-0.22 0.1,0 0.18,0.1 0.18,0.22 0,0.12 -0.08,0.22 -0.18,0.23l0.1 0 0 1.6 0.86 0 0 0.89 0 0 0 1.38 0.72 0 0 0.9 0.62 0 0 0.71 -0.29 0 0 14.39 3.11 0 0 5.86 5.45 0 0 -13.08 -0.33 0 0 -0.58 4.77 0 0 -2.06 0.14 0 0 2.06 0.8 0 0 -2.51 0.14 0 0 2.51 1.14 0 0 0.58 -0.29 0 0 6.45 2.36 0 1.12 7.55 5.59 0 0 0.21 0 14.07 0 6.7 -167.84 0 0 -20.93 0 -0.05zm152.96 -10.43l0.46 0 0 -1.07 -0.46 0 0 1.07zm1.18 -1.73l0.46 0 0 -1.07 -0.46 0 0 1.07zm-51.91 -9.08l0.44 0 0 -1.87 -0.44 0 0 1.87zm2.23 0l0.45 0 0 -1.87 -0.45 0 0 1.87zm2.23 0l0.45 0 0 -1.87 -0.45 0 0 1.87zm2.46 0l0.22 0 0 -1.87 -0.22 0 0 1.87zm-0.23 0l0.23 0 0 -1.87 -0.23 0 0 1.87zm-6.69 3.85l0.44 0 0 -1.87 -0.44 0 0 1.87zm2.23 0l0.45 0 0 -1.87 -0.45 0 0 1.87zm2.23 0l0.45 0 0 -1.87 -0.45 0 0 1.87zm2.46 0l0.22 0 0 -1.87 -0.22 0 0 1.87zm-0.23 0l0.23 0 0 -1.87 -0.23 0 0 1.87zm-6.69 3.93l0.44 0 0 -1.86 -0.44 0 0 1.86zm2.23 0l0.45 0 0 -1.86 -0.45 0 0 1.86zm2.23 0l0.45 0 0 -1.86 -0.45 0 0 1.86zm2.46 0l0.22 0 0 -1.86 -0.22 0 0 1.86zm-0.23 0l0.23 0 0 -1.86 -0.23 0 0 1.86zm-6.69 3.94l0.44 0 0 -0.07 -0.44 0 0 0.07zm0 -0.07l0.44 0 0 -1.79 -0.44 0 0 1.79zm2.23 0.07l0.45 0 0 -0.07 -0.45 0 0 0.07zm0 -0.07l0.45 0 0 -1.79 -0.45 0 0 1.79zm2.68 0.07l-0.45 0 0 -0.07 0.45 0 0 -1.79 0 1.86zm-0.45 -0.07l0.45 0 0 -1.79 -0.45 0 0 1.79zm2.68 0.07l-0.45 0 0 -0.07 0.23 0 0 -1.79 0.22 0 0 1.86zm-0.45 -0.07l0.23 0 0 -1.79 -0.23 0 0 1.79zm-6.69 3.65l0.44 0 0 -1.87 -0.44 0 0 1.87zm2.23 0l0.45 0 0 -1.87 -0.45 0 0 1.87zm2.23 0l0.45 0 0 -1.87 -0.45 0 0 1.87zm-4.46 3.99l0.44 0 0 -0.02 -0.44 0 0 0.02zm0 -0.02l0.44 0 0 -1.85 -0.44 0 0 1.85zm2.23 0.02l0.45 0 0 -0.02 -0.45 0 0 0.02zm0 -0.02l0.45 0 0 -1.85 -0.45 0 0 1.85zm2.68 0.02l-0.45 0 0 -0.02 0.45 0 0 -1.85 0 1.87zm-0.45 -0.02l0.45 0 0 -1.85 -0.45 0 0 1.85zm2.46 -3.97l0.22 0 0 -1.87 -0.22 0 0 1.87zm-0.23 0l0.23 0 0 -1.87 -0.23 0 0 1.87zm25.91 -12.41l0.42 0 0 -1.08 -0.42 0 0 1.08zm0 -1.08l0.42 0 0 -0.12 -0.42 0 0 0.12zm1.31 1.08l0.42 0 0 -1.08 -0.42 0 0 1.08zm0 -1.08l0.42 0 0 -0.12 -0.42 0 0 0.12zm1.24 1.08l0.42 0 0 -1.08 -0.42 0 0 1.08zm0 -1.08l0.42 0 0 -0.12 -0.42 0 0 0.12zm1.31 1.08l0.42 0 0 -1.08 -0.42 0 0 1.08zm0 -1.08l0.42 0 0 -0.12 -0.42 0 0 0.12zm-3.86 3.22l0.42 0 0 -1.19 -0.42 0 0 1.19zm1.31 0l0.42 0 0 -1.19 -0.42 0 0 1.19zm1.24 0l0.42 0 0 -1.19 -0.42 0 0 1.19zm1.31 0l0.42 0 0 -1.19 -0.42 0 0 1.19zm-3.86 2.29l0.42 0 0 -1.2 -0.42 0 0 1.2zm1.31 0l0.42 0 0 -1.2 -0.42 0 0 1.2zm1.24 0l0.42 0 0 -1.2 -0.42 0 0 1.2zm1.31 0l0.42 0 0 -1.2 -0.42 0 0 1.2zm1.43 -4.43l0.42 0 0 -1.08 -0.42 0 0 1.08zm0 -1.08l0.42 0 0 -0.12 -0.42 0 0 0.12zm0 3.22l0.42 0 0 -1.19 -0.42 0 0 1.19zm1.31 -2.14l0.42 0 0 -1.08 -0.42 0 0 1.08zm0 -1.08l0.42 0 0 -0.12 -0.42 0 0 0.12zm-62.77 -1.84l0.67 0 0 -0.55 -0.67 0 0 0.55zm0 1.16l0.67 0 0 -1.16 -0.67 0 0 1.16zm0 2.42l0.67 0 0 -0.86 -0.67 0 0 0.86zm0 0.85l0.67 0 0 -0.85 -0.67 0 0 0.85zm0 2.73l0.67 0 0 -1.16 -0.67 0 0 1.16zm0 0.55l0.67 0 0 -0.55 -0.67 0 0 0.55zm0 3.03l0.67 0 0 -1.47 -0.67 0 0 1.47zm0 0.24l0.67 0 0 -0.24 -0.67 0 0 0.24zm0 3.09l0.67 0 0 -1.27 -0.67 0 0 1.27zm0 -1.27l0.67 0 0 -0.44 -0.67 0 0 0.44zm0 4.54l0.67 0 0 -0.96 -0.67 0 0 0.96zm0 -0.96l0.67 0 0 -0.75 -0.67 0 0 0.75zm2.88 -16.38l0.67 0 0 -0.55 -0.67 0 0 0.55zm0 1.16l0.67 0 0 -1.16 -0.67 0 0 1.16zm0 2.42l0.67 0 0 -0.86 -0.67 0 0 0.86zm0 0.85l0.67 0 0 -0.85 -0.67 0 0 0.85zm0 2.73l0.67 0 0 -1.16 -0.67 0 0 1.16zm0 0.55l0.67 0 0 -0.55 -0.67 0 0 0.55zm0 3.03l0.67 0 0 -1.47 -0.67 0 0 1.47zm0 0.24l0.67 0 0 -0.24 -0.67 0 0 0.24zm0 3.09l0.67 0 0 -1.27 -0.67 0 0 1.27zm0 -1.27l0.67 0 0 -0.44 -0.67 0 0 0.44zm0 4.54l0.67 0 0 -0.96 -0.67 0 0 0.96zm0 -0.96l0.67 0 0 -0.75 -0.67 0 0 0.75zm2.88 -16.38l0.67 0 0 -0.55 -0.67 0 0 0.55zm0 1.16l0.67 0 0 -1.16 -0.67 0 0 1.16zm0 2.42l0.67 0 0 -0.86 -0.67 0 0 0.86zm0 0.85l0.67 0 0 -0.85 -0.67 0 0 0.85zm0 2.73l0.67 0 0 -1.16 -0.67 0 0 1.16zm0 0.55l0.67 0 0 -0.55 -0.67 0 0 0.55zm0 3.03l0.67 0 0 -1.47 -0.67 0 0 1.47zm0 0.24l0.67 0 0 -0.24 -0.67 0 0 0.24zm0 3.09l0.67 0 0 -1.27 -0.67 0 0 1.27zm0 -1.27l0.67 0 0 -0.44 -0.67 0 0 0.44zm0 4.54l0.67 0 0 -0.96 -0.67 0 0 0.96zm0 -0.96l0.67 0 0 -0.75 -0.67 0 0 0.75zm2.87 -16.38l0.67 0 0 -0.55 -0.67 0 0 0.55zm0 1.16l0.67 0 0 -1.16 -0.67 0 0 1.16zm0 2.42l0.67 0 0 -0.86 -0.67 0 0 0.86zm0 0.85l0.67 0 0 -0.85 -0.67 0 0 0.85zm0 2.73l0.67 0 0 -1.16 -0.67 0 0 1.16zm0 0.55l0.67 0 0 -0.55 -0.67 0 0 0.55zm0 3.03l0.67 0 0 -1.47 -0.67 0 0 1.47zm0 0.24l0.67 0 0 -0.24 -0.67 0 0 0.24zm0 3.09l0.67 0 0 -1.27 -0.67 0 0 1.27zm0 -1.27l0.67 0 0 -0.44 -0.67 0 0 0.44zm0 4.54l0.67 0 0 -0.96 -0.67 0 0 0.96zm0 -0.96l0.67 0 0 -0.75 -0.67 0 0 0.75z"/>
 </g>
</svg>
