<?xml version="1.0" encoding="UTF-8"?>
<!DOCTYPE svg PUBLIC "-//W3C//DTD SVG 1.1//EN" "http://www.w3.org/Graphics/SVG/1.1/DTD/svg11.dtd">
<!-- Creator: CorelDRAW 2020 (64-Bit) -->
<svg xmlns="http://www.w3.org/2000/svg" xml:space="preserve" width="1920px" height="700px" version="1.1" style="shape-rendering:geometricPrecision; text-rendering:geometricPrecision; image-rendering:optimizeQuality; fill-rule:evenodd; clip-rule:evenodd"
viewBox="0 0 167.84 61.19"
 xmlns:xlink="http://www.w3.org/1999/xlink"
 xmlns:xodm="http://www.corel.com/coreldraw/odm/2003">
 <defs>
  <style type="text/css">
   <![CDATA[
    .fil0 {fill:#EDF0F2;fill-rule:nonzero}
   ]]>
  </style>
 </defs>
 <g id="Слой_x0020_1">
  <metadata id="CorelCorpID_0Corel-Layer"/>
  <path class="fil0" d="M127.54 23.31l-2.49 -1.15c0.36,-0.78 0.57,-1.64 0.6,-2.55l2.74 0.09c-0.05,1.27 -0.34,2.49 -0.85,3.61zm-127.54 37.88l167.84 0 0 -6.7 0 -10.75 0 -0.03 -7.23 0 0 -6.97 -4.68 0 -1.78 -13.2 -0.26 0 0 -1.59 -0.94 0 0 1.59 -0.23 0 0 -0.6 -0.65 0 0 0.6 -1.35 0 0 -1.39 -0.37 0 0 -0.96 -2.66 0 0 0.96 -0.37 0 0 1.39 -0.37 0 0 7.93 -2.36 0 0 -20.13 -0.78 0 0 -4.41 -0.25 0 0 4.41 -0.59 0 0 -6.12 -0.25 0 0 6.12 -0.51 0 0 -3.31 -0.25 0 0 3.31 -4.58 0 0 14.29 -5.09 0 0 9.25 -4.76 0 -3.78 -7.01c0.64,-0.36 1.24,-0.81 1.79,-1.32l0.77 0.83c-0.16,0.15 -0.27,0.36 -0.27,0.6 0,0.44 0.36,0.8 0.79,0.8 0.44,0 0.8,-0.36 0.8,-0.8 0,-0.44 -0.36,-0.8 -0.8,-0.8 -0.16,0 -0.32,0.06 -0.45,0.14l-0.78 -0.83c0.07,-0.07 0.13,-0.13 0.2,-0.19 0.81,-0.83 1.47,-1.77 1.95,-2.79l0.86 0.4c-0.02,0.06 -0.03,0.13 -0.03,0.19 0,0.44 0.36,0.8 0.8,0.8 0.43,0 0.79,-0.36 0.79,-0.8 0,-0.44 -0.36,-0.79 -0.79,-0.79 -0.34,0 -0.63,0.21 -0.75,0.51l-0.85 -0.39c0.53,-1.16 0.83,-2.42 0.87,-3.72l0.93 0.03c0.01,0.43 0.36,0.77 0.79,0.77 0.44,0 0.8,-0.35 0.8,-0.79 0,-0.44 -0.36,-0.8 -0.8,-0.8 -0.41,0 -0.75,0.32 -0.79,0.73l-0.93 -0.03c0.01,-0.09 0.01,-0.18 0.01,-0.28 0,-1.16 -0.2,-2.29 -0.58,-3.35l0.77 -0.29c0.12,0.28 0.4,0.48 0.73,0.48 0.44,0 0.79,-0.36 0.79,-0.8 0,-0.44 -0.35,-0.79 -0.79,-0.79 -0.44,0 -0.79,0.35 -0.79,0.79 0,0.09 0.01,0.16 0.03,0.24l-0.77 0.29c-0.45,-1.2 -1.12,-2.3 -2,-3.25l0.61 -0.58c0.14,0.14 0.33,0.22 0.54,0.22 0.44,0 0.8,-0.35 0.8,-0.79 0,-0.44 -0.36,-0.8 -0.8,-0.8 -0.44,0 -0.79,0.36 -0.79,0.8 0,0.19 0.07,0.37 0.18,0.51l-0.6 0.57c-0.06,-0.07 -0.13,-0.13 -0.19,-0.2 -0.92,-0.92 -1.99,-1.64 -3.16,-2.13l0.34 -0.81c0.07,0.02 0.15,0.03 0.24,0.03 0.44,0 0.79,-0.35 0.79,-0.79 0,-0.44 -0.35,-0.8 -0.79,-0.8 -0.44,0 -0.8,0.36 -0.8,0.8 0,0.32 0.2,0.6 0.48,0.72l-0.34 0.82c-1.04,-0.42 -2.16,-0.67 -3.31,-0.71l0.04 -1.12 0.02 0c0.44,0 0.8,-0.35 0.8,-0.79 0,-0.44 -0.36,-0.8 -0.8,-0.8 -0.44,0 -0.79,0.36 -0.79,0.8 0,0.4 0.3,0.73 0.68,0.79l-0.04 1.12c-0.09,0 -0.18,0 -0.27,0 -1.11,0 -2.19,0.18 -3.21,0.53l-0.32 -0.91c0.29,-0.12 0.49,-0.4 0.49,-0.74 0,-0.44 -0.35,-0.79 -0.79,-0.79 -0.44,0 -0.79,0.35 -0.79,0.79 0,0.45 0.35,0.8 0.79,0.8 0.08,0 0.15,-0.01 0.22,-0.03l0.32 0.91c-1.23,0.45 -2.37,1.14 -3.36,2.06l-0.58 -0.62c0.13,-0.14 0.21,-0.33 0.21,-0.54 0,-0.44 -0.35,-0.8 -0.79,-0.8 -0.44,0 -0.79,0.36 -0.79,0.8 0,0.44 0.35,0.8 0.79,0.8 0.2,0 0.38,-0.08 0.52,-0.2l0.58 0.62c-0.07,0.07 -0.13,0.13 -0.2,0.19 -0.81,0.83 -1.47,1.77 -1.95,2.79l-0.73 -0.34c0.03,-0.08 0.04,-0.16 0.04,-0.25 0,-0.44 -0.35,-0.8 -0.79,-0.8 -0.44,0 -0.8,0.36 -0.8,0.8 0,0.44 0.36,0.79 0.8,0.79 0.32,0 0.59,-0.18 0.72,-0.46l0.73 0.34c-0.53,1.16 -0.83,2.42 -0.87,3.72l-0.95 -0.03c-0.01,-0.43 -0.36,-0.78 -0.79,-0.78 -0.44,0 -0.79,0.36 -0.79,0.8 0,0.44 0.35,0.8 0.79,0.8 0.42,0 0.76,-0.32 0.79,-0.73l0.95 0.03c-0.01,0.09 -0.01,0.18 -0.01,0.27 0,1.17 0.2,2.3 0.58,3.36l-0.77 0.29c-0.12,-0.28 -0.4,-0.48 -0.73,-0.48 -0.44,0 -0.79,0.35 -0.79,0.8 0,0.44 0.35,0.79 0.79,0.79 0.44,0 0.79,-0.35 0.79,-0.79 0,-0.09 -0.01,-0.16 -0.03,-0.24l0.77 -0.29c0.45,1.2 1.12,2.3 2,3.25l-0.61 0.58c-0.14,-0.14 -0.33,-0.23 -0.54,-0.23 -0.44,0 -0.8,0.36 -0.8,0.8 0,0.44 0.36,0.8 0.8,0.8 0.44,0 0.79,-0.36 0.79,-0.8 0,-0.19 -0.07,-0.37 -0.18,-0.51l0.6 -0.57c0.06,0.06 0.13,0.13 0.19,0.2 0.62,0.62 1.31,1.15 2.05,1.57l-3.78 7.01 -3.06 0 0 -4.75 -1.25 0 0 -9.02 0.49 0 0 -0.19 -10.72 0 0 0.19 0.49 0 0 4.55 -1.05 0 -1 5.18 0 -17 -0.44 0 0 -6.15 -2.22 0 0 -2.35 -1.18 0 0 -1.96 -0.42 0 0 -3.38 -0.11 0 0 3.38 -0.41 0 0 1.96 -1.19 0 0 2.35 -2.19 0 0 6.15 -0.46 0 0 11.18 -3.41 0 0 9.86 -11.3 0 0 -19.06 0.91 0 0 -0.3 -0.91 0 0 -0.54 -1.15 0 0 -0.88 -9.42 0 0 0.88 -1.15 0 0 0.54 -0.9 0 0 0.3 0.9 0 0 11.86 -1.54 0 0 -2.22 -9.5 0 0 2.72 -2.07 0 0 5.06 -3.35 0 0 -16.55 -1.12 0 0 -1.12 -0.89 0 0 -2.98 -0.18 0 0 2.98 -0.42 0 0 -3.73 -0.19 0 0 3.73 -0.51 0 0 1.12 -0.28 0 0 16.55 -6.94 0 0 -9.7 0.32 0 0 -0.66 -2.14 0 0 -1.78 -1.02 0 0 1.78 -0.94 0 0 -1.78 -0.93 0 0 1.78 -1.81 0 0 -1.78 -5.55 0 0 1.78 -1.29 0 0 0.66 0.73 0 0 3.65 -2.05 0 0 8.25 -2.81 0 0 -2.2 -3.13 0 0 4.81 -3.79 0 0 5.66 -7.7 0 0 0.03 0 17.45zm110.45 -26.31l16.88 0 -3.73 -6.92c-0.46,0.25 -0.93,0.47 -1.42,0.65l0.28 0.8c0.08,-0.02 0.17,-0.04 0.26,-0.04 0.44,0 0.79,0.36 0.79,0.8 0,0.44 -0.35,0.8 -0.79,0.8 -0.44,0 -0.79,-0.36 -0.79,-0.8 0,-0.32 0.18,-0.59 0.45,-0.72l-0.28 -0.82c-1.02,0.36 -2.1,0.54 -3.21,0.54 -0.09,0 -0.18,0 -0.27,0l-0.03 0.84c0.4,0.03 0.72,0.37 0.72,0.79 0,0.44 -0.35,0.8 -0.79,0.8 -0.44,0 -0.79,-0.36 -0.79,-0.8 0,-0.43 0.34,-0.79 0.77,-0.8l0.03 -0.83c-1.15,-0.04 -2.27,-0.29 -3.31,-0.71l-0.34 0.82c0.28,0.12 0.48,0.4 0.48,0.72 0,0.44 -0.36,0.8 -0.8,0.8 -0.44,0 -0.79,-0.36 -0.79,-0.8 0,-0.44 0.35,-0.79 0.79,-0.79 0.09,0 0.17,0.01 0.24,0.03l0.34 -0.81c-0.33,-0.14 -0.65,-0.3 -0.96,-0.47l-3.73 6.92zm15.16 -8.77c-0.06,0.06 -0.13,0.12 -0.19,0.18l-1.87 -2.01c0.6,-0.58 1.1,-1.27 1.47,-2.04l2.49 1.16c-0.47,0.99 -1.1,1.91 -1.9,2.71zm-1.98 1.53l-1.31 -2.43c0.42,-0.24 0.81,-0.54 1.16,-0.87l1.88 2.01c-0.54,0.5 -1.12,0.93 -1.73,1.29zm-11.46 -1.53c-0.06,-0.07 -0.12,-0.13 -0.19,-0.19l2 -1.89c0.44,0.46 0.94,0.86 1.48,1.18l-1.31 2.43c-0.71,-0.41 -1.38,-0.93 -1.98,-1.53zm-2.19 -3.42l2.57 -0.95c0.32,0.83 0.78,1.59 1.37,2.23l-2 1.88c-0.85,-0.93 -1.51,-2 -1.94,-3.16zm-0.59 -3.35c0,-0.08 0,-0.17 0,-0.26l2.73 0.09c0,0.06 0,0.12 0,0.17 0,0.82 0.14,1.59 0.4,2.32l-2.57 0.95c-0.37,-1.03 -0.56,-2.13 -0.56,-3.27zm0.85 -3.97l2.49 1.16c-0.36,0.78 -0.57,1.64 -0.6,2.55l-2.74 -0.09c0.05,-1.27 0.34,-2.49 0.85,-3.62zm1.93 -2.79c0.06,-0.06 0.13,-0.12 0.19,-0.18l1.87 2.01c-0.6,0.58 -1.1,1.27 -1.47,2.04l-2.49 -1.16c0.47,-0.99 1.1,-1.91 1.9,-2.71zm3.52 -2.24l0.91 2.6c-0.86,0.31 -1.64,0.79 -2.3,1.41l-1.88 -2.01c0.96,-0.9 2.07,-1.57 3.27,-2zm3.2 -0.56c0.09,0 0.18,0 0.26,0l-0.08 2.76c-0.06,0 -0.12,-0.01 -0.18,-0.01 -0.77,0 -1.52,0.14 -2.21,0.38l-0.91 -2.6c0.99,-0.35 2.04,-0.53 3.12,-0.53zm3.57 0.7l-1.04 2.55c-0.7,-0.29 -1.47,-0.46 -2.27,-0.49l0.09 -2.75c1.12,0.04 2.21,0.27 3.22,0.69zm3.15 2.1c0.06,0.07 0.12,0.13 0.19,0.19l-2 1.89c-0.65,-0.68 -1.43,-1.23 -2.3,-1.6l1.04 -2.55c1.14,0.47 2.18,1.17 3.07,2.07zm2.19 3.42l-2.57 0.95c-0.32,-0.83 -0.78,-1.59 -1.37,-2.23l2 -1.88c0.85,0.93 1.51,2 1.94,3.16zm-6.62 9.75c0.34,-0.12 0.67,-0.27 0.99,-0.45l1.3 2.43c-0.44,0.24 -0.9,0.45 -1.38,0.62l-0.91 -2.6zm-2.47 0.4c0.06,0 0.12,0 0.18,0 0.77,0 1.52,-0.13 2.21,-0.37l0.91 2.6c-0.99,0.35 -2.04,0.53 -3.12,0.53 -0.09,0 -0.18,0 -0.26,-0.01l0.08 -2.75zm-2.35 -0.49c0.7,0.29 1.47,0.46 2.27,0.49l-0.09 2.75c-1.12,-0.04 -2.21,-0.27 -3.22,-0.69l1.04 -2.55zm-0.08 -0.03l-1.04 2.55c-0.32,-0.13 -0.63,-0.28 -0.93,-0.45l1.31 -2.43c0.21,0.12 0.43,0.23 0.66,0.33zm3.11 -6.1c0.02,-0.04 0.02,-0.08 0.03,-0.12l6.1 0.2c-0.03,0.88 -0.24,1.73 -0.59,2.49l-5.54 -2.57zm0.04 0.33l-0.11 -0.2c0.01,-0.02 0.02,-0.03 0.03,-0.05l5.55 2.57c-0.36,0.76 -0.85,1.44 -1.44,2l-4.03 -4.32zm0.17 0.31l3.79 4.07c-0.34,0.33 -0.73,0.61 -1.13,0.86l-2.66 -4.93zm-0.49 -0.34c0.03,-0.01 0.06,-0.02 0.08,-0.04l2.91 5.4c-0.31,0.17 -0.63,0.32 -0.96,0.44l-2.03 -5.8zm-0.22 6.19c-0.06,0 -0.11,0 -0.17,0l0.2 -6.14c0.03,0 0.07,-0.01 0.11,-0.02l2.02 5.8c-0.67,0.23 -1.4,0.36 -2.16,0.36zm-0.16 -6.16c0.03,0.01 0.06,0.01 0.1,0.02l-0.2 6.14c-0.78,-0.03 -1.53,-0.2 -2.22,-0.48l2.32 -5.68zm-0.14 -0.07c0.02,0.01 0.04,0.02 0.06,0.03l-2.32 5.68c-0.22,-0.09 -0.44,-0.2 -0.65,-0.31l2.91 -5.4zm-0.3 0.18l-2.76 5.13c-0.54,-0.32 -1.02,-0.71 -1.45,-1.16l4.21 -3.97zm0.12 -0.4c0.01,0.03 0.03,0.06 0.05,0.09l-0.04 0.07 -4.4 4.15c-0.58,-0.63 -1.04,-1.37 -1.34,-2.19l5.73 -2.12zm-0.02 -0.41c-0.01,0.04 -0.02,0.08 -0.03,0.12l-6.1 -0.2c0.03,-0.88 0.24,-1.73 0.59,-2.49l5.54 2.57zm0.1 -0.17c-0.02,0.02 -0.04,0.06 -0.06,0.09l-5.55 -2.57c0.36,-0.76 0.85,-1.44 1.44,-2l4.17 4.48zm0.18 -0.13c-0.04,0.01 -0.08,0.04 -0.11,0.06l-4.17 -4.48c0.64,-0.6 1.41,-1.07 2.25,-1.38l2.03 5.8zm0.19 -0.05c-0.03,0 -0.07,0.01 -0.11,0.02l-2.02 -5.8c0.67,-0.23 1.4,-0.36 2.16,-0.36 0.06,0 0.11,0 0.17,0l-0.2 6.14zm0.19 0.02c-0.03,-0.01 -0.06,-0.01 -0.1,-0.02l0.2 -6.14c0.78,0.03 1.53,0.2 2.22,0.48l-2.32 5.68zm0.2 0.12c-0.04,-0.03 -0.08,-0.06 -0.12,-0.08l2.32 -5.68c0.86,0.36 1.62,0.89 2.25,1.56l-4.45 4.2zm0.06 0.06l4.45 -4.2c0.58,0.63 1.04,1.37 1.34,2.19l-5.73 2.12c-0.01,-0.04 -0.04,-0.08 -0.06,-0.11zm-7.05 0.16l6.1 0.2c0,0.04 0.01,0.08 0.02,0.12l-5.73 2.12c-0.26,-0.71 -0.4,-1.47 -0.4,-2.27 0,-0.05 0,-0.11 0.01,-0.17zm13.26 0.35l-6.1 -0.2c0,-0.04 -0.01,-0.08 -0.02,-0.12l5.73 -2.12c0.26,0.71 0.4,1.47 0.4,2.26 0,0.06 0,0.12 -0.01,0.18zm2.87 -0.18c0,0.09 0,0.18 0,0.27l-2.73 -0.09c0,-0.06 0,-0.12 0,-0.18 0,-0.81 -0.14,-1.58 -0.4,-2.31l2.57 -0.95c0.37,1.03 0.56,2.13 0.56,3.26zm-68.65 -1.08l0 -1.58 0.29 0 0 1.58 -0.29 0zm0.98 0l0 -1.58 0.28 0 0 1.58 -0.28 0zm0.98 0l0 -1.58 0.28 0 0 1.58 -0.28 0zm0.98 0l0 -1.58 0.28 0 0 1.58 -0.28 0zm0.98 0l0 -1.58 0.28 0 0 1.58 -0.28 0zm0.97 0l0 -1.58 0.29 0 0 1.58 -0.29 0zm0.98 0l0 -1.58 0.29 0 0 1.58 -0.29 0zm0.98 0l0 -1.58 0.29 0 0 1.58 -0.29 0zm0.98 0l0 -1.58 0.29 0 0 1.58 -0.29 0zm0.98 0l0 -1.58 0.28 0 0 1.58 -0.28 0zm1.12 0l0 -1.58 0.14 0 0 1.58 -0.14 0zm-0.14 0l0 -1.58 0.14 0 0 1.58 -0.14 0zm-9.79 2.2l0 -1.58 0.29 0 0 1.58 -0.29 0zm0.98 0l0 -1.58 0.28 0 0 1.58 -0.28 0zm0.98 0l0 -1.58 0.28 0 0 1.58 -0.28 0zm0.98 0l0 -1.58 0.28 0 0 1.58 -0.28 0zm0.98 0l0 -1.58 0.28 0 0 1.58 -0.28 0zm0.97 0l0 -1.58 0.29 0 0 1.58 -0.29 0zm0.98 0l0 -1.58 0.29 0 0 1.58 -0.29 0zm0.98 0l0 -1.58 0.29 0 0 1.58 -0.29 0zm0.98 0l0 -1.58 0.29 0 0 1.58 -0.29 0zm0.98 0l0 -1.58 0.28 0 0 1.58 -0.28 0zm0.98 0l0 -1.58 0.28 0 0 1.58 -0.28 0zm-9.79 2.21l0 -1.59 0.29 0 0 1.59 -0.29 0zm0.98 0l0 -1.59 0.28 0 0 1.59 -0.28 0zm0.98 0l0 -1.59 0.28 0 0 1.59 -0.28 0zm0.98 0l0 -1.59 0.28 0 0 1.59 -0.28 0zm0.98 0l0 -1.59 0.28 0 0 1.59 -0.28 0zm0.97 0l0 -1.59 0.29 0 0 1.59 -0.29 0zm0.98 0l0 -1.59 0.29 0 0 1.59 -0.29 0zm0.98 0l0 -1.59 0.29 0 0 1.59 -0.29 0zm0.98 0l0 -1.59 0.29 0 0 1.59 -0.29 0zm0.98 0l0 -1.59 0.28 0 0 1.59 -0.28 0zm0.98 0l0 -1.59 0.28 0 0 1.59 -0.28 0zm-6.85 2.2l0 -1.58 0.28 0 0 1.58 -0.28 0zm0.98 0l0 -1.58 0.28 0 0 1.58 -0.28 0zm0.97 0l0 -1.58 0.29 0 0 1.58 -0.29 0zm0.98 0l0 -1.58 0.29 0 0 1.58 -0.29 0zm0.98 0l0 -1.58 0.29 0 0 1.58 -0.29 0zm0.98 0l0 -1.58 0.29 0 0 1.58 -0.29 0zm0.98 0l0 -1.58 0.28 0 0 1.58 -0.28 0zm0.98 0l0 -1.58 0.28 0 0 1.58 -0.28 0zm-5.87 2.32l0 -1.58 0.28 0 0 1.58 -0.28 0zm0.97 0l0 -1.58 0.29 0 0 1.58 -0.29 0zm0.98 0l0 -1.58 0.29 0 0 1.58 -0.29 0zm0.98 0l0 -1.58 0.29 0 0 1.58 -0.29 0zm0.98 0l0 -1.58 0.29 0 0 1.58 -0.29 0zm0.98 0l0 -1.58 0.28 0 0 1.58 -0.28 0zm0.98 0l0 -1.58 0.28 0 0 1.58 -0.28 0zm27.4 -2.62l0.55 0 0 -2.13 -0.55 0 0 2.13zm1.68 0l0.56 0 0 -2.13 -0.56 0 0 2.13zm1.59 0l0.55 0 0 -2.13 -0.55 0 0 2.13z"/>
 </g>
</svg>
