<?xml version="1.0" encoding="UTF-8"?>
<!DOCTYPE svg PUBLIC "-//W3C//DTD SVG 1.1//EN" "http://www.w3.org/Graphics/SVG/1.1/DTD/svg11.dtd">
<!-- Creator: CorelDRAW 2020 (64-Bit) -->
<svg xmlns="http://www.w3.org/2000/svg" xml:space="preserve" width="225px" height="186px" version="1.1" style="shape-rendering:geometricPrecision; text-rendering:geometricPrecision; image-rendering:optimizeQuality; fill-rule:evenodd; clip-rule:evenodd"
viewBox="0 0 2.27 1.88"
 xmlns:xlink="http://www.w3.org/1999/xlink"
 xmlns:xodm="http://www.corel.com/coreldraw/odm/2003">
 <defs>
  <style type="text/css">
   <![CDATA[
    .fil0 {fill:#525A63;fill-rule:nonzero}
   ]]>
  </style>
 </defs>
 <g id="Слой_x0020_1">
  <metadata id="CorelCorpID_0Corel-Layer"/>
  <path class="fil0" d="M1.07 0.04c0,-0.01 0.01,-0.01 0.01,-0.02 -0.02,0 -0.04,0.02 -0.06,0.03 -0.02,0.01 -0.04,0.03 -0.04,0.03 -0.01,0.01 -0.06,0.01 -0.11,0.05 0.01,0 0.01,0 0.03,0 -0.01,0 0,0 -0.01,0 0,0.01 0,0 -0.02,0.01 0,0.01 -0.01,0.01 -0.02,0.02 0,0.01 -0.02,0.03 -0.03,0.04l0.02 -0.01c-0.01,0.01 -0.02,0.02 -0.03,0.05 0,0.02 -0.01,0.04 -0.01,0.06 0,0 0,0 0,0 0.01,-0.01 0.01,-0.01 0.02,-0.01 -0.02,0.04 -0.02,0.07 -0.01,0.12 0,0.03 0.01,0.05 0.02,0.08 0,0.01 0,0.02 0.01,0.03 -0.02,-0.01 -0.04,-0.03 -0.04,0.03 0,0.03 0.01,0.04 0.02,0.07 0,0.03 -0.01,0.11 0.06,0.1 0.01,0.02 0.01,0.04 0.01,0.06 0,0.02 0.01,0.03 0.01,0.04 0,0.01 0.01,0.01 0.01,0.03 0,0.07 -0.02,0.05 0.03,0.11 0.03,0.05 0.11,0.1 0.16,0.13l0.02 0.01c-0.02,0.01 -0.04,0.02 -0.06,0.03 -0.01,0 -0.02,0.01 -0.02,0.01 0.02,0.04 0.04,0.05 0.06,0.11 0.01,0 0.01,0.01 0.01,0.01 -0.04,0.09 -0.06,0.25 -0.07,0.35 0,0 0,0.01 0,0.02 0.03,0 0.06,0 0.09,0 0.04,0 0.07,0 0.1,0l0 -0.02c-0.01,-0.11 -0.03,-0.25 -0.07,-0.35 0,-0.01 0.01,-0.02 0.02,-0.03 0.02,-0.05 0.03,-0.05 0.05,-0.09 0,0 -0.03,-0.02 -0.03,-0.02 -0.02,-0.01 -0.03,-0.02 -0.04,-0.02l0.04 -0.03c0.06,-0.04 0.13,-0.1 0.17,-0.15 0,-0.01 0,-0.06 -0.01,-0.07 0,-0.02 0.02,-0.04 0.02,-0.06 0,-0.02 0,-0.06 0.01,-0.07 0.01,0 0.02,0 0.03,-0.01 0.04,-0.02 0.03,-0.06 0.04,-0.1 0,-0.02 0.01,-0.04 0.01,-0.07 0,-0.05 -0.02,-0.03 -0.04,-0.02l0.02 -0.08c0.02,-0.07 0.04,-0.17 -0.01,-0.23 -0.01,-0.02 -0.02,-0.02 -0.02,-0.03 0.01,0 0.02,0 0.03,0 -0.01,-0.02 -0.04,-0.05 -0.05,-0.06 -0.02,-0.02 -0.05,-0.03 -0.08,-0.03 0,-0.01 0.02,-0.01 0.03,-0.01 -0.01,-0.02 -0.04,-0.02 -0.07,-0.02 0.01,-0.01 0.01,-0.01 0.02,-0.01 0.01,0 0.02,0 0.04,0 -0.01,-0.01 -0.04,-0.02 -0.05,-0.01 -0.02,0 -0.04,0 -0.06,0 0.01,-0.01 0.01,-0.01 0.02,-0.02 0,0 0,0 0,0 0.01,0 0.01,0 0.01,0 -0.03,0 -0.05,0 -0.08,0.01 0,-0.02 0.01,-0.02 0.02,-0.03 -0.02,-0.01 -0.08,0.01 -0.11,0.03 0,0 -0.02,0.01 -0.02,0.01zm-0.17 1.57l0 -0.03c-0.01,-0.05 -0.01,-0.11 -0.02,-0.16 0,-0.05 0,-0.1 -0.01,-0.16 0,-0.03 -0.01,-0.25 0,-0.29 0.01,-0.01 0.01,-0.02 0.02,-0.03 -0.03,0.01 -0.04,0.05 -0.1,0.08 -0.06,0.04 -0.13,0.06 -0.2,0.08 -0.02,0.01 -0.04,0.02 -0.06,0.03 -0.05,0.01 -0.09,0.03 -0.13,0.05 -0.02,0.01 -0.04,0.02 -0.06,0.03 -0.01,0 -0.02,0.01 -0.03,0.01 0.15,0.19 0.35,0.33 0.59,0.39zm1.06 -0.39c-0.01,0 -0.02,-0.01 -0.02,-0.01 -0.07,-0.03 -0.13,-0.06 -0.19,-0.08 -0.08,-0.04 -0.27,-0.09 -0.32,-0.14 -0.01,-0.01 -0.04,-0.05 -0.04,-0.05 0,0.01 0.01,0.02 0.01,0.04 0,0.02 0,0.13 0,0.16 0,0.12 -0.01,0.27 -0.02,0.4 0,0.01 -0.01,0.04 -0.01,0.07 0.24,-0.06 0.44,-0.2 0.59,-0.39zm0.18 -1c0.08,0.16 0.13,0.33 0.13,0.52 0,0.63 -0.51,1.14 -1.14,1.14 -0.62,0 -1.13,-0.51 -1.13,-1.14 0,-0.19 0.04,-0.36 0.12,-0.52 -0.05,0.13 -0.08,0.27 -0.08,0.42 0,0.6 0.49,1.09 1.09,1.09 0.61,0 1.1,-0.49 1.1,-1.09 0,-0.15 -0.03,-0.29 -0.09,-0.42z"/>
 </g>
</svg>
