<?xml version="1.0" encoding="UTF-8"?>
<!DOCTYPE svg PUBLIC "-//W3C//DTD SVG 1.1//EN" "http://www.w3.org/Graphics/SVG/1.1/DTD/svg11.dtd">
<!-- Creator: CorelDRAW 2020 (64-Bit) -->
<svg xmlns="http://www.w3.org/2000/svg" xml:space="preserve" width="10313px" height="2523px" version="1.1" style="shape-rendering:geometricPrecision; text-rendering:geometricPrecision; image-rendering:optimizeQuality; fill-rule:evenodd; clip-rule:evenodd"
viewBox="0 0 13837 3385.69"
 xmlns:xlink="http://www.w3.org/1999/xlink"
 xmlns:xodm="http://www.corel.com/coreldraw/odm/2003">
 <defs>
  <style type="text/css">
   <![CDATA[
    .fil0 {fill:#E31145;fill-rule:nonzero}
   ]]>
  </style>
 </defs>
 <g id="Слой_x0020_1">
  <metadata id="CorelCorpID_0Corel-Layer"/>
  <path class="fil0" d="M3385.69 1692.84c0,934.88 -757.97,1692.85 -1692.76,1692.85 -934.99,0 -1692.93,-757.97 -1692.93,-1692.85 0,-934.98 757.94,-1692.84 1692.93,-1692.84 934.79,0 1692.76,757.86 1692.76,1692.84zm-2695.48 -418.45c-23.46,0 -40.25,23.28 -32.96,45.6 217.16,664.99 603.34,902.49 744.74,969.51 31.65,15.03 66.24,22.38 101.28,22.38l246.4 0c33.55,0 63.39,-23.92 68.03,-57.18 14.81,-106.35 12.31,-153.14 43.53,-191.04 12.32,-15 37.06,-9.9 50.16,4.37l251.93 209.73c20.02,21.75 48.25,34.12 77.82,34.12l360.3 0c31.79,0 49.09,-37.16 28.64,-61.52l-284.67 -339c-29.08,-34.61 -28.86,-85.12 0.32,-119.67 84.39,-100.04 245.7,-308.03 275.61,-468.42 4.81,-25.6 -16.19,-48.88 -42.23,-48.88l-318.36 0c-29.73,0 -55.98,18.72 -66.37,46.58 -84.2,226.03 -169.34,442.56 -313.83,473.24 -19.32,4.01 -37.27,-11.66 -37.27,-31.44l-29.43 -443.76c0,-28.86 -17.23,-55.01 -43.51,-66.83 -125.34,-56.18 -254.35,-48.15 -385.98,6.75 -16.5,6.84 -21.16,28.29 -9.61,41.91 130.07,152.98 62.91,368.54 26.48,457.13 -7.3,17.58 -31.52,19.34 -41.5,3.2 -116.61,-137.66 -213.42,-293.95 -292.81,-466.65 -5.59,-12.21 -17.55,-20.13 -30.98,-20.13 -64.64,0 -256.03,0 -345.73,0z"/>
  <path class="fil0" d="M8474.12 1692.84c0,934.88 -757.97,1692.85 -1692.76,1692.85 -934.99,0 -1692.93,-757.97 -1692.93,-1692.85 0,-934.98 757.94,-1692.84 1692.93,-1692.84 934.79,0 1692.76,757.86 1692.76,1692.84zm-1167.33 -640.46c64.31,0 116.36,52.16 116.36,116.36 0,64.32 -52.05,116.37 -116.36,116.37 -64.29,0 -116.34,-52.05 -116.34,-116.37 0,-64.2 52.05,-116.36 116.34,-116.36zm-517.29 951.18c-172.71,0 -313.18,-140.48 -313.18,-313.1 0,-172.62 140.47,-313.1 313.18,-313.1 172.62,0 313.01,140.48 313.01,313.1 0,172.62 -140.39,313.1 -313.01,313.1zm0 -801.89c269.45,0 488.78,219.22 488.78,488.79 0,269.53 -219.33,488.78 -488.78,488.78 -269.57,0 -488.87,-219.25 -488.87,-488.78 0,-269.57 219.3,-488.79 488.87,-488.79zm-404.49 -316.92c-225.73,0 -409.36,183.63 -409.36,409.44l0 792.5c0,225.73 183.63,409.48 409.36,409.48l792.5 0c225.84,0 409.56,-183.75 409.56,-409.48l0 -792.5c0,-225.81 -183.72,-409.44 -409.56,-409.44l-792.5 0zm792.5 1798.09c328.7,0 596.25,-267.45 596.25,-596.15l0 -792.5c0,-328.69 -267.55,-596.14 -596.25,-596.14l-792.5 0c-328.69,0 -596.14,267.45 -596.14,596.14l0 792.5c0,328.7 267.45,596.15 596.14,596.15l792.5 0z"/>
  <path class="fil0" d="M13837 1692.84c0,934.88 -757.97,1692.85 -1692.76,1692.85 -934.99,0 -1692.93,-757.97 -1692.93,-1692.85 0,-934.87 757.94,-1692.84 1692.93,-1692.84 934.79,0 1692.76,757.97 1692.76,1692.84zm-1254.21 96.84c-39.98,-23.9 -92.06,-50.72 -139.23,-31.38 -36.16,14.83 -59.22,71.39 -82.68,100.36 -11.96,14.75 -26.39,17.14 -44.86,9.76 -135.79,-54.14 -239.81,-144.76 -314.73,-269.72 -12.72,-19.34 -10.44,-34.67 4.78,-52.65 22.78,-26.69 51.21,-56.91 57.23,-92.8 6.21,-35.88 -10.72,-78.01 -25.47,-109.96 -19.04,-40.74 -40.17,-99.14 -81.13,-122.2 -37.71,-21.34 -87.26,-9.38 -120.76,17.99 -57.8,47.09 -85.74,120.86 -84.98,194.07 0.19,20.83 2.87,41.5 7.76,61.52 11.66,48.31 33.88,93.39 59.05,136.28 18.93,32.33 39.52,63.63 61.6,93.85 72.74,98.65 162.96,184.39 267.66,248.43 52.24,32.03 108.61,60.05 166.87,79.42 65.37,21.54 123.64,44 194.24,30.71 73.97,-14.19 146.8,-59.81 176.09,-131.1 8.71,-21.05 13.11,-44.59 8.22,-66.89 -10.03,-46.03 -72.34,-73.39 -109.66,-95.69zm-797.57 521.96l-295.69 79.25 78.77 -294.05 -20.48 -33.5c-75.4,-123.91 -115.3,-265.36 -115.3,-408.96 0,-434.83 353.84,-788.51 788.67,-788.51 434.81,0 788.48,353.68 788.48,788.51 0,434.92 -353.67,788.65 -788.48,788.65 -141.05,0 -280.2,-38.63 -402.58,-111.46l-33.39 -19.93zm-555.68 339.24l529.37 -141.91c142.29,77.22 301.21,117.91 462.28,117.91 536.04,0 972.28,-436.27 972.28,-972.5 0,-536.03 -436.24,-972.31 -972.28,-972.31 -536.25,0 -972.5,436.28 -972.5,972.31 0,164.02 42.1,325.6 122.09,469.83l-141.24 526.67z"/>
 </g>
</svg>
